<svg xmlns="http://www.w3.org/2000/svg" aria-hidden="true" style="position:absolute;width:0;height:0;overflow:hidden">
  <defs>
    <symbol id="icon-date" viewBox="0 0 38 32">
      <path fill="#ffa03f" d="M34.87 1.927h-3.21V.643a.641.641 0 1 0-1.284 0v1.284h-6.42V.643a.641.641 0 1 0-1.284 0v1.284h-6.42V.643a.641.641 0 1 0-1.284 0v1.284h-6.42V.643a.641.641 0 1 0-1.284 0v1.284h-3.21a1.93 1.93 0 0 0-1.926 1.926V28.89a1.93 1.93 0 0 0 1.926 1.925h30.815a1.924 1.924 0 0 0 1.925-1.925V3.853a1.928 1.928 0 0 0-1.925-1.926zM4.055 3.211h3.21v1.284a.641.641 0 1 0 1.284 0V3.211h6.42v1.284a.641.641 0 1 0 1.284 0V3.211h6.42v1.284a.641.641 0 1 0 1.284 0V3.211h6.42v1.284a.641.641 0 1 0 1.284 0V3.211h3.21c.354 0 .642.287.642.642v3.852H3.414V3.853c0-.355.287-.642.642-.642zM34.87 29.532H4.055a.641.641 0 0 1-.642-.642V8.989h32.099V28.89a.642.642 0 0 1-.642.642z" style="fill:var(--color1, #ffa03f)"/>
      <path fill="#ffa03f" d="M20.729 21.812h-2.536a1.285 1.285 0 0 1-1.284-1.284v-2.536a1.281 1.281 0 0 1 1.284-1.284h2.536a1.281 1.281 0 0 1 1.284 1.284v2.536a1.281 1.281 0 0 1-1.284 1.284zm-2.537-3.82v2.537h2.537l-.001-2.537h-2.537zm-3.571 3.82h-2.537c-.34 0-.667-.135-.907-.376s-.376-.567-.377-.908v-2.536a1.29 1.29 0 0 1 1.284-1.284h2.537a1.285 1.285 0 0 1 1.284 1.284v2.536a1.286 1.286 0 0 1-1.284 1.284zm-2.537-3.82v2.537h2.538l-.001-2.537h-2.537zm-3.563 3.82H5.984c-.34 0-.667-.135-.907-.376s-.376-.567-.377-.908v-2.536a1.286 1.286 0 0 1 1.284-1.284h2.537a1.285 1.285 0 0 1 1.284 1.284v2.536a1.29 1.29 0 0 1-1.284 1.284zm-2.537-3.82v2.537h2.537l-.001-2.537H5.983zm20.854 3.82h-2.537c-.34 0-.667-.135-.907-.376s-.376-.567-.377-.908v-2.536a1.286 1.286 0 0 1 1.284-1.284h2.537a1.289 1.289 0 0 1 1.285 1.284v2.536a1.29 1.29 0 0 1-1.285 1.284zm-2.537-3.82v2.537h2.538l-.001-2.537h-2.537zm-9.68 10.24h-2.537c-.34 0-.667-.135-.907-.376s-.376-.567-.377-.908v-2.536a1.29 1.29 0 0 1 1.284-1.284h2.537a1.285 1.285 0 0 1 1.284 1.284v2.536a1.286 1.286 0 0 1-1.284 1.284zm-2.537-3.82v2.537h2.538l-.001-2.537h-2.537zm-3.563 3.82H5.984c-.34 0-.667-.135-.907-.376s-.376-.567-.377-.908v-2.536a1.286 1.286 0 0 1 1.284-1.284h2.537a1.285 1.285 0 0 1 1.284 1.284v2.536a1.29 1.29 0 0 1-1.284 1.284zm-2.537-3.82v2.537h2.537l-.001-2.537H5.983zm26.962-2.6h-2.537c-.34 0-.667-.135-.907-.376s-.376-.567-.377-.908v-2.536a1.29 1.29 0 0 1 1.284-1.284h2.537a1.289 1.289 0 0 1 1.285 1.284v2.536a1.286 1.286 0 0 1-1.285 1.284zm-2.537-3.82v2.537h2.537l-.001-2.536h-2.537zm-9.68-2.599h-2.536a1.281 1.281 0 0 1-1.284-1.284v-2.536a1.281 1.281 0 0 1 1.284-1.284h2.536a1.281 1.281 0 0 1 1.284 1.284v2.536a1.281 1.281 0 0 1-1.284 1.284zm-2.537-3.821v2.537h2.537l-.001-2.537h-2.537zm8.646 3.821h-2.537a1.285 1.285 0 0 1-1.284-1.284v-2.536a1.286 1.286 0 0 1 1.284-1.284h2.537a1.289 1.289 0 0 1 1.285 1.284v2.536a1.29 1.29 0 0 1-1.285 1.284zm-2.537-3.821v2.537h2.538l-.001-2.537h-2.537zm8.645 3.821h-2.537a1.285 1.285 0 0 1-1.284-1.284v-2.536a1.29 1.29 0 0 1 1.284-1.284h2.537a1.289 1.289 0 0 1 1.285 1.284v2.536a1.286 1.286 0 0 1-1.285 1.284zm-2.537-3.821v2.537h2.537l-.001-2.536h-2.537zm-15.026-1.028a1.275 1.275 0 0 0-.761-.256h-2.537a1.285 1.285 0 0 0-1.284 1.284v2.536a1.29 1.29 0 0 0 1.284 1.284h2.537a1.285 1.285 0 0 0 1.284-1.284v-2.242l.371-.421a.636.636 0 0 0-.894-.902zm-.761 3.564h-2.538v-2.536h2.37l-.733.832-.387-.439a.642.642 0 0 0-.963.849l.868.986a.642.642 0 0 0 .963 0l.42-.476v.785zM21.51 23.4a1.274 1.274 0 0 0-.782-.272h-2.536a1.285 1.285 0 0 0-1.284 1.284v2.536a1.281 1.281 0 0 0 1.284 1.284h2.536a1.281 1.281 0 0 0 1.284-1.284v-2.194l.413-.469a.637.637 0 0 0-.916-.885zm-.781 3.548h-2.537v-2.536h2.411l-.733.832-.387-.439a.642.642 0 0 0-.963.849l.868.986a.642.642 0 0 0 .963 0l.377-.428v.737z" style="fill:var(--color1, #ffa03f)"/>
    </symbol>
    <symbol id="icon-map" viewBox="0 0 40 32">
      <path fill="#ffa03f" d="M37.584 4.244 26.196 9.125 15.637 4.257A.838.838 0 0 0 14.5 5.308a.842.842 0 0 0 .439.471l10.893 5.023c.215.1.462.105.68.012l10.566-4.528v17.469l-10.083 4.652-12.236-4.893a.837.837 0 0 0-.637.006L3.557 28.048V11.402l1.212-.606a.838.838 0 0 0-.749-1.503l-1.676.841a.839.839 0 0 0-.464.749v18.434a.84.84 0 0 0 1.169.774l11.413-4.893 12.248 4.899a.841.841 0 0 0 .662-.018l10.894-5.029a.837.837 0 0 0 .482-.761V5.02a.84.84 0 0 0-1.163-.774z" style="fill:var(--color1, #ffa03f)"/>
      <path fill="#ffa03f" d="M7.742.001C4.52.001 1.89 2.631 1.89 5.853c0 .945.372 1.924.866 2.969 1.226 2.462 2.635 4.516 4.324 6.761a.837.837 0 1 0 1.323-1.027c-1.585-2.203-2.979-4.036-4.132-6.452-.446-.943-.705-1.812-.705-2.252 0-2.316 1.859-4.176 4.176-4.176s4.176 1.859 4.176 4.176c-.355 2.036-1.472 3.8-2.536 5.444a.84.84 0 0 0 .247 1.163.838.838 0 0 0 1.163-.247c1.133-2.004 2.769-4.133 2.802-6.359 0-3.222-2.63-5.852-5.852-5.852z" style="fill:var(--color1, #ffa03f)"/>
      <path fill="#ffa03f" d="M7.743 4.176c-.916 0-1.676.761-1.676 1.676s.761 1.676 1.676 1.676c.916 0 1.676-.761 1.676-1.676s-.761-1.676-1.676-1.676zm22.87 14.494-1.67 1.676a.838.838 0 0 0 0 1.182.838.838 0 0 0 1.182 0l1.677-1.677a.837.837 0 0 0 0-1.181c-.474-.368-.754-.181-1.188 0z" style="fill:var(--color1, #ffa03f)"/>
      <path fill="#ffa03f" d="M28.942 18.67a.837.837 0 0 0 0 1.181l1.67 1.676a.838.838 0 0 0 1.188-1.181l-1.676-1.677c-.472-.366-.749-.182-1.182 0zm-2.765-6.112c-2.247.412-3.402 2.524-4.553 4.12-1.053 1.534-2.164 2.871-3.823 3.421-1.396 0-2.937-.737-4.206-1.713s-2.267-2.214-2.586-2.852a.837.837 0 0 0-1.126-.371.838.838 0 0 0-.377 1.12c.519 1.038 1.614 2.315 3.068 3.433s3.272 2.06 5.227 2.06c2.48-.33 3.904-2.35 5.184-4.12.97-1.324 1.767-2.674 3.192-3.421 1.955 0 2.561 1.942 2.561 1.942a.839.839 0 0 0 1.59-.532s-1.078-3.087-4.151-3.087z" style="fill:var(--color1, #ffa03f)"/>
    </symbol>
    <symbol id="icon-search" viewBox="0 0 30 32">
      <path fill="#fff" d="M16.54 23.978a10.33 10.33 0 0 0 3.907-2.02l5.08 4.221a1.73 1.73 0 0 0 2.813-1.038 1.731 1.731 0 0 0-.599-1.624l-5.029-4.181a10.386 10.386 0 1 0-6.173 4.641zm-4.5-16.716a6.927 6.927 0 0 1 8.486 4.886 6.927 6.927 0 0 1-4.886 8.486 6.924 6.924 0 1 1-3.599-13.373z" style="fill:var(--color2, #fff)"/>
    </symbol>
    <symbol xmlns="http://www.w3.org/2000/svg" id="icon-hero-lights" viewBox="0 0 34 32">
      <path d="M.733 18.594 1.54 5.551l1.626.152L.733 18.594zm7.663 9.283 12.823 2.514-.364 1.592-12.459-4.106zm-6.149-10.01L13.108 0l2.118 1.377L2.247 17.868zm3.06 1.42L21.826 1.65l1.798 1.774L5.307 19.287zm2.169 2.523L32.362 5.631l1.331 2.146L7.475 21.81zm1.028 1.729 21.724-8.91.895 2.362L8.504 23.54zm1.355 2.319 23.287-3.001.255 2.513-23.543.488z"/>
    </symbol>
<symbol id="icon-dialog" viewBox="0 0 32 32">
<path fill="#ffa03f" style="fill: var(--color1, #ffa03f)" d="M31.943 30.246c0 1.118-3.363 1.695-6.726 1.695s-6.726-0.577-6.726-1.695c0-2.981 3.011-5.397 6.726-5.397s6.726 2.416 6.726 5.397zM28.914 21.153c-0-0.98-0.39-1.921-1.083-2.614s-1.634-1.082-2.614-1.082-1.92 0.389-2.614 1.083c-0.693 0.693-1.083 1.634-1.083 2.614s0.389 1.92 1.083 2.614c0.693 0.693 1.634 1.083 2.614 1.083s1.92-0.39 2.614-1.083c0.693-0.693 1.083-1.634 1.083-2.614zM0 29.891c0 1.118 3.363 1.694 6.726 1.694s6.726-0.577 6.726-1.695c0-2.981-3.011-5.397-6.726-5.397s-6.726 2.416-6.726 5.397zM10.423 20.798c-0-0.98-0.39-1.92-1.083-2.614s-1.633-1.083-2.614-1.083c-0.98 0-1.92 0.389-2.614 1.083s-1.083 1.633-1.083 2.614c0 0.98 0.389 1.921 1.083 2.614s1.633 1.083 2.614 1.083c0.98 0 1.921-0.389 2.614-1.083s1.083-1.633 1.083-2.614zM27.121 8.65c0.551-1.811 0.31-3.771-0.662-5.394s-2.587-2.76-4.444-3.128c-1.857-0.368-3.783 0.067-5.301 1.197 1.734 1.060 2.947 2.793 3.351 4.785s-0.040 4.060-1.224 5.712c-0.259 0.359-0.55 0.693-0.869 1 1.329 0.606 2.821 0.75 4.241 0.411l3.378 2.612-0.295-4.26c0.856-0.801 1.486-1.813 1.826-2.935l0 0zM18.711 6.609c-0.294-1.805-1.411-3.371-3.023-4.236s-3.534-0.932-5.201-0.18c-1.667 0.752-2.89 2.237-3.308 4.017s0.016 3.654 1.174 5.070l-0.747 3.671 3.238-1.883c1.293 0.487 2.717 0.503 4.020 0.044s2.404-1.362 3.107-2.551c0.704-1.189 0.966-2.589 0.739-3.952h-0z"></path>
</symbol>
<symbol id="icon-share-lock" viewBox="0 0 32 32">
<path fill="#41a557" style="fill: var(--color1, #41a557)" d="M2.804 22.389c0-0.145 0.058-0.285 0.161-0.388l2.033-2.032v-1.966c0-0.145 0.058-0.285 0.161-0.388l1.097-1.097c0.103-0.103 0.242-0.161 0.388-0.161h2.719c0.353-0.852 0.871-1.626 1.524-2.278l0.058-0.058c0.2-0.197 0.411-0.383 0.633-0.555v-1.817l-1.872-1.872h-3.063c-0.145 0-0.285-0.058-0.388-0.161l-2.032-2.033h-2.836l-1.323 1.324v18.105l0.055 0.031 2.687-2.689v-1.966z"></path>
<path fill="#41a557" style="fill: var(--color1, #41a557)" d="M8.835 19.031c0.002-0.531 0.064-1.060 0.184-1.576h-2.151l-0.775 0.775v1.966c0 0.145-0.058 0.285-0.161 0.388l-2.033 2.032v1.966c0 0.145-0.058 0.285-0.161 0.388l-2.656 2.656 6.655 3.993 5.382-3.23-3.363-5.885c-0.604-1.058-0.922-2.255-0.923-3.473v-0z"></path>
<path fill="#41a557" style="fill: var(--color1, #41a557)" d="M19.801 19.099c0 2.12-1.718 3.838-3.838 3.838s-3.838-1.718-3.838-3.838c0-2.12 1.718-3.838 3.838-3.838s3.838 1.718 3.838 3.838z"></path>
<path fill="#41a557" style="fill: var(--color1, #41a557)" d="M19.252 6.262l1.872 1.872h1.966c0.145 0 0.285 0.058 0.388 0.161l0.936 0.936h1.739l1.872-1.872v-1.966c0-0.145 0.058-0.285 0.161-0.388l0.936-0.936v-2.095l-4.652 2.791c-0.174 0.104-0.391 0.104-0.565 0l-3.059-1.836-1.593 1.593-0 1.739z"></path>
<path fill="#41a557" style="fill: var(--color1, #41a557)" d="M28.024 14.391v1.966c0 0.145-0.058 0.285-0.161 0.388l-2.033 2.032v0.642l2.033 2.033c0.103 0.103 0.161 0.242 0.161 0.388v2.741h3.838v-12.062h-1.966l-1.872 1.872z"></path>
<path fill="#41a557" style="fill: var(--color1, #41a557)" d="M30.218 1.316v2.979c0 0.145-0.058 0.285-0.161 0.388l-0.936 0.936v1.966c0 0.145-0.058 0.285-0.161 0.388l-2.193 2.193c-0.103 0.103-0.242 0.161-0.388 0.161h-2.193c-0.145 0-0.285-0.058-0.388-0.161l-0.936-0.936h-1.966c-0.145 0-0.285-0.058-0.388-0.161l-2.193-2.193c-0.103-0.103-0.161-0.242-0.161-0.388v-2.193c0-0.145 0.058-0.285 0.161-0.388l1.559-1.559-3.913-2.348-7.942 4.765c-0.174 0.104-0.391 0.104-0.565 0l-7.393-4.436v7.029l0.709-0.709c0.103-0.103 0.242-0.16 0.388-0.16h3.29c0.145 0 0.285 0.058 0.388 0.16l2.032 2.033h3.063c0.145 0 0.285 0.058 0.388 0.161l2.193 2.193c0.103 0.103 0.161 0.242 0.161 0.388v1.334c0.995-0.517 2.1-0.787 3.221-0.785h0.137c1.858-0.005 3.64 0.733 4.951 2.051l0.058 0.058c1.086 1.086 1.785 2.499 1.989 4.021s-0.099 3.069-0.861 4.403l-3.363 5.886 5.382 3.229 7.676-4.606v-1.334h-4.386c-0.303 0-0.548-0.245-0.548-0.548v-3.063l-2.033-2.032c-0.103-0.103-0.161-0.242-0.161-0.388v-1.097c0-0.145 0.058-0.285 0.161-0.388l2.033-2.032v-1.966c0-0.145 0.058-0.285 0.161-0.388l2.193-2.193c0.103-0.103 0.242-0.161 0.388-0.161h2.193v-11.094l-1.645 0.987z"></path>
<path fill="#41a557" style="fill: var(--color1, #41a557)" d="M21.994 19.031c0.004-1.567-0.619-3.070-1.729-4.175l-0.058-0.058c-1.105-1.111-2.608-1.733-4.175-1.729h-0.137c-1.567-0.004-3.070 0.618-4.175 1.729l-0.058 0.058c-0.916 0.916-1.505 2.108-1.677 3.392s0.083 2.589 0.726 3.713l5.253 9.192 5.253-9.192c0.51-0.892 0.778-1.902 0.778-2.929h0zM15.963 24.034c-1.309 0-2.564-0.52-3.489-1.445s-1.445-2.18-1.445-3.489 0.52-2.564 1.445-3.489c0.925-0.925 2.18-1.445 3.489-1.445s2.564 0.52 3.489 1.445c0.925 0.925 1.445 2.18 1.445 3.489-0.001 1.308-0.522 2.563-1.447 3.488s-2.179 1.445-3.488 1.447z"></path>
</symbol>
<symbol id="icon-share-date" viewBox="0 0 33 32">
<path fill="#ff6b00" style="fill: var(--color2, #ff6b00)" d="M5.401 0h5.19v4.745h-5.19v-4.745z"></path>
<path fill="#ff6b00" style="fill: var(--color2, #ff6b00)" d="M14.594 24.244h3.559v3.41h-3.559v-3.41z"></path>
<path fill="#ff6b00" style="fill: var(--color2, #ff6b00)" d="M14.594 15.793h3.559v3.485h-3.559v-3.485z"></path>
<path fill="#ff6b00" style="fill: var(--color2, #ff6b00)" d="M5.549 15.793h3.559v3.485h-3.559v-3.485z"></path>
<path fill="#ff6b00" style="fill: var(--color2, #ff6b00)" d="M30.024 3.114h-1.342v2.395c0 0.408-0.326 0.719-0.734 0.719h-6.665c-0.408 0-0.756-0.304-0.756-0.719v-2.395h-8.452v2.395c0 0.408-0.348 0.719-0.756 0.719h-6.665c-0.408 0-0.734-0.304-0.734-0.719v-2.395h-1.342c-1.223 0-2.217 1.008-2.217 2.239v4.508h31.881v-4.508c0-1.231-0.994-2.239-2.217-2.239h0z"></path>
<path fill="#ff6b00" style="fill: var(--color2, #ff6b00)" d="M0.359 29.509c0 1.223 0.994 2.224 2.217 2.224h27.448c1.223 0 2.217-1.001 2.217-2.224v-18.165h-31.881l-0 18.165zM22.009 15.051c0-0.408 0.334-0.741 0.741-0.741h5.042c0.408 0 0.741 0.334 0.741 0.741v4.894c0 0.408-0.334 0.741-0.741 0.741h-5.042c-0.408 0-0.741-0.334-0.741-0.741v-4.893zM13.112 15.051c0-0.408 0.334-0.741 0.741-0.741h5.042c0.408 0 0.741 0.334 0.741 0.741v4.894c0 0.408-0.334 0.741-0.741 0.741h-5.042c-0.408 0-0.741-0.334-0.741-0.741v-4.893zM13.112 23.503c0-0.408 0.334-0.741 0.741-0.741h5.042c0.408 0 0.741 0.334 0.741 0.741v4.893c0 0.408-0.334 0.741-0.741 0.741h-5.042c-0.408 0-0.741-0.334-0.741-0.741v-4.893zM4.066 15.051c0-0.408 0.334-0.741 0.741-0.741h5.042c0.408 0 0.742 0.334 0.742 0.741v4.894c0 0.408-0.334 0.741-0.742 0.741h-5.042c-0.408 0-0.741-0.334-0.741-0.741v-4.893zM4.066 23.503c0-0.408 0.334-0.741 0.741-0.741h5.042c0.408 0 0.742 0.334 0.742 0.741v4.893c0 0.408-0.334 0.741-0.742 0.741h-5.042c-0.408 0-0.741-0.334-0.741-0.741v-4.893z"></path>
<path fill="#ff6b00" style="fill: var(--color2, #ff6b00)" d="M23.491 15.793h3.559v3.485h-3.559v-3.485z"></path>
<path fill="#ff6b00" style="fill: var(--color2, #ff6b00)" d="M22.010 0h5.19v4.745h-5.19v-4.745z"></path>
<path fill="#ff6b00" style="fill: var(--color2, #ff6b00)" d="M5.549 24.244h3.559v3.41h-3.559v-3.41z"></path>
</symbol>
  </defs>
</svg>
