<svg xmlns="http://www.w3.org/2000/svg" aria-hidden="true" style="position:absolute;width:0;height:0;overflow:hidden">
  <defs>
    <symbol id="icon-date" viewBox="0 0 38 32">
      <path fill="#ffa03f" d="M34.87 1.927h-3.21V.643a.641.641 0 1 0-1.284 0v1.284h-6.42V.643a.641.641 0 1 0-1.284 0v1.284h-6.42V.643a.641.641 0 1 0-1.284 0v1.284h-6.42V.643a.641.641 0 1 0-1.284 0v1.284h-3.21a1.93 1.93 0 0 0-1.926 1.926V28.89a1.93 1.93 0 0 0 1.926 1.925h30.815a1.924 1.924 0 0 0 1.925-1.925V3.853a1.928 1.928 0 0 0-1.925-1.926zM4.055 3.211h3.21v1.284a.641.641 0 1 0 1.284 0V3.211h6.42v1.284a.641.641 0 1 0 1.284 0V3.211h6.42v1.284a.641.641 0 1 0 1.284 0V3.211h6.42v1.284a.641.641 0 1 0 1.284 0V3.211h3.21c.354 0 .642.287.642.642v3.852H3.414V3.853c0-.355.287-.642.642-.642zM34.87 29.532H4.055a.641.641 0 0 1-.642-.642V8.989h32.099V28.89a.642.642 0 0 1-.642.642z" style="fill:var(--color1, #ffa03f)"/>
      <path fill="#ffa03f" d="M20.729 21.812h-2.536a1.285 1.285 0 0 1-1.284-1.284v-2.536a1.281 1.281 0 0 1 1.284-1.284h2.536a1.281 1.281 0 0 1 1.284 1.284v2.536a1.281 1.281 0 0 1-1.284 1.284zm-2.537-3.82v2.537h2.537l-.001-2.537h-2.537zm-3.571 3.82h-2.537c-.34 0-.667-.135-.907-.376s-.376-.567-.377-.908v-2.536a1.29 1.29 0 0 1 1.284-1.284h2.537a1.285 1.285 0 0 1 1.284 1.284v2.536a1.286 1.286 0 0 1-1.284 1.284zm-2.537-3.82v2.537h2.538l-.001-2.537h-2.537zm-3.563 3.82H5.984c-.34 0-.667-.135-.907-.376s-.376-.567-.377-.908v-2.536a1.286 1.286 0 0 1 1.284-1.284h2.537a1.285 1.285 0 0 1 1.284 1.284v2.536a1.29 1.29 0 0 1-1.284 1.284zm-2.537-3.82v2.537h2.537l-.001-2.537H5.983zm20.854 3.82h-2.537c-.34 0-.667-.135-.907-.376s-.376-.567-.377-.908v-2.536a1.286 1.286 0 0 1 1.284-1.284h2.537a1.289 1.289 0 0 1 1.285 1.284v2.536a1.29 1.29 0 0 1-1.285 1.284zm-2.537-3.82v2.537h2.538l-.001-2.537h-2.537zm-9.68 10.24h-2.537c-.34 0-.667-.135-.907-.376s-.376-.567-.377-.908v-2.536a1.29 1.29 0 0 1 1.284-1.284h2.537a1.285 1.285 0 0 1 1.284 1.284v2.536a1.286 1.286 0 0 1-1.284 1.284zm-2.537-3.82v2.537h2.538l-.001-2.537h-2.537zm-3.563 3.82H5.984c-.34 0-.667-.135-.907-.376s-.376-.567-.377-.908v-2.536a1.286 1.286 0 0 1 1.284-1.284h2.537a1.285 1.285 0 0 1 1.284 1.284v2.536a1.29 1.29 0 0 1-1.284 1.284zm-2.537-3.82v2.537h2.537l-.001-2.537H5.983zm26.962-2.6h-2.537c-.34 0-.667-.135-.907-.376s-.376-.567-.377-.908v-2.536a1.29 1.29 0 0 1 1.284-1.284h2.537a1.289 1.289 0 0 1 1.285 1.284v2.536a1.286 1.286 0 0 1-1.285 1.284zm-2.537-3.82v2.537h2.537l-.001-2.536h-2.537zm-9.68-2.599h-2.536a1.281 1.281 0 0 1-1.284-1.284v-2.536a1.281 1.281 0 0 1 1.284-1.284h2.536a1.281 1.281 0 0 1 1.284 1.284v2.536a1.281 1.281 0 0 1-1.284 1.284zm-2.537-3.821v2.537h2.537l-.001-2.537h-2.537zm8.646 3.821h-2.537a1.285 1.285 0 0 1-1.284-1.284v-2.536a1.286 1.286 0 0 1 1.284-1.284h2.537a1.289 1.289 0 0 1 1.285 1.284v2.536a1.29 1.29 0 0 1-1.285 1.284zm-2.537-3.821v2.537h2.538l-.001-2.537h-2.537zm8.645 3.821h-2.537a1.285 1.285 0 0 1-1.284-1.284v-2.536a1.29 1.29 0 0 1 1.284-1.284h2.537a1.289 1.289 0 0 1 1.285 1.284v2.536a1.286 1.286 0 0 1-1.285 1.284zm-2.537-3.821v2.537h2.537l-.001-2.536h-2.537zm-15.026-1.028a1.275 1.275 0 0 0-.761-.256h-2.537a1.285 1.285 0 0 0-1.284 1.284v2.536a1.29 1.29 0 0 0 1.284 1.284h2.537a1.285 1.285 0 0 0 1.284-1.284v-2.242l.371-.421a.636.636 0 0 0-.894-.902zm-.761 3.564h-2.538v-2.536h2.37l-.733.832-.387-.439a.642.642 0 0 0-.963.849l.868.986a.642.642 0 0 0 .963 0l.42-.476v.785zM21.51 23.4a1.274 1.274 0 0 0-.782-.272h-2.536a1.285 1.285 0 0 0-1.284 1.284v2.536a1.281 1.281 0 0 0 1.284 1.284h2.536a1.281 1.281 0 0 0 1.284-1.284v-2.194l.413-.469a.637.637 0 0 0-.916-.885zm-.781 3.548h-2.537v-2.536h2.411l-.733.832-.387-.439a.642.642 0 0 0-.963.849l.868.986a.642.642 0 0 0 .963 0l.377-.428v.737z" style="fill:var(--color1, #ffa03f)"/>
    </symbol>
    <symbol id="icon-map" viewBox="0 0 40 32">
      <path fill="#ffa03f" d="M37.584 4.244 26.196 9.125 15.637 4.257A.838.838 0 0 0 14.5 5.308a.842.842 0 0 0 .439.471l10.893 5.023c.215.1.462.105.68.012l10.566-4.528v17.469l-10.083 4.652-12.236-4.893a.837.837 0 0 0-.637.006L3.557 28.048V11.402l1.212-.606a.838.838 0 0 0-.749-1.503l-1.676.841a.839.839 0 0 0-.464.749v18.434a.84.84 0 0 0 1.169.774l11.413-4.893 12.248 4.899a.841.841 0 0 0 .662-.018l10.894-5.029a.837.837 0 0 0 .482-.761V5.02a.84.84 0 0 0-1.163-.774z" style="fill:var(--color1, #ffa03f)"/>
      <path fill="#ffa03f" d="M7.742.001C4.52.001 1.89 2.631 1.89 5.853c0 .945.372 1.924.866 2.969 1.226 2.462 2.635 4.516 4.324 6.761a.837.837 0 1 0 1.323-1.027c-1.585-2.203-2.979-4.036-4.132-6.452-.446-.943-.705-1.812-.705-2.252 0-2.316 1.859-4.176 4.176-4.176s4.176 1.859 4.176 4.176c-.355 2.036-1.472 3.8-2.536 5.444a.84.84 0 0 0 .247 1.163.838.838 0 0 0 1.163-.247c1.133-2.004 2.769-4.133 2.802-6.359 0-3.222-2.63-5.852-5.852-5.852z" style="fill:var(--color1, #ffa03f)"/>
      <path fill="#ffa03f" d="M7.743 4.176c-.916 0-1.676.761-1.676 1.676s.761 1.676 1.676 1.676c.916 0 1.676-.761 1.676-1.676s-.761-1.676-1.676-1.676zm22.87 14.494-1.67 1.676a.838.838 0 0 0 0 1.182.838.838 0 0 0 1.182 0l1.677-1.677a.837.837 0 0 0 0-1.181c-.474-.368-.754-.181-1.188 0z" style="fill:var(--color1, #ffa03f)"/>
      <path fill="#ffa03f" d="M28.942 18.67a.837.837 0 0 0 0 1.181l1.67 1.676a.838.838 0 0 0 1.188-1.181l-1.676-1.677c-.472-.366-.749-.182-1.182 0zm-2.765-6.112c-2.247.412-3.402 2.524-4.553 4.12-1.053 1.534-2.164 2.871-3.823 3.421-1.396 0-2.937-.737-4.206-1.713s-2.267-2.214-2.586-2.852a.837.837 0 0 0-1.126-.371.838.838 0 0 0-.377 1.12c.519 1.038 1.614 2.315 3.068 3.433s3.272 2.06 5.227 2.06c2.48-.33 3.904-2.35 5.184-4.12.97-1.324 1.767-2.674 3.192-3.421 1.955 0 2.561 1.942 2.561 1.942a.839.839 0 0 0 1.59-.532s-1.078-3.087-4.151-3.087z" style="fill:var(--color1, #ffa03f)"/>
    </symbol>
    <symbol id="icon-search" viewBox="0 0 30 32">
      <path fill="#fff" d="M16.54 23.978a10.33 10.33 0 0 0 3.907-2.02l5.08 4.221a1.73 1.73 0 0 0 2.813-1.038 1.731 1.731 0 0 0-.599-1.624l-5.029-4.181a10.386 10.386 0 1 0-6.173 4.641zm-4.5-16.716a6.927 6.927 0 0 1 8.486 4.886 6.927 6.927 0 0 1-4.886 8.486 6.924 6.924 0 1 1-3.599-13.373z" style="fill:var(--color2, #fff)"/>
    </symbol>
    <symbol xmlns="http://www.w3.org/2000/svg" id="icon-hero-lights" viewBox="0 0 34 32">
      <path d="M.733 18.594 1.54 5.551l1.626.152L.733 18.594zm7.663 9.283 12.823 2.514-.364 1.592-12.459-4.106zm-6.149-10.01L13.108 0l2.118 1.377L2.247 17.868zm3.06 1.42L21.826 1.65l1.798 1.774L5.307 19.287zm2.169 2.523L32.362 5.631l1.331 2.146L7.475 21.81zm1.028 1.729 21.724-8.91.895 2.362L8.504 23.54zm1.355 2.319 23.287-3.001.255 2.513-23.543.488z"/>
    </symbol>
  </defs>
</svg>
