<svg width="75" height="10" viewBox="0 0 75 10" fill="none" xmlns="http://www.w3.org/2000/svg">
<path d="M5.50005 0L4.20752 3.81579H0L3.39627 6.18421L2.10373 10L5.5 7.63158L8.89627 10L7.60373 6.18421L11 3.81579H6.79248L5.50005 0Z" fill="#FFA03F"/>
<path d="M21.5 0L20.2075 3.81579H16L19.3963 6.18421L18.1037 10L21.5 7.63158L24.8963 10L23.6037 6.18421L27 3.81579H22.7925L21.5 0Z" fill="#FFA03F"/>
<path d="M37.5 0L36.2075 3.81579H32L35.3963 6.18421L34.1037 10L37.5 7.63158L40.8963 10L39.6037 6.18421L43 3.81579H38.7925L37.5 0Z" fill="#FFA03F"/>
<path d="M53.5 0L52.2075 3.81579H48L51.3963 6.18421L50.1037 10L53.5 7.63158L56.8963 10L55.6037 6.18421L59 3.81579H54.7925L53.5 0Z" fill="#FFA03F"/>
<path d="M69.5 0L68.2075 3.81579H64L67.3963 6.18421L66.1037 10L69.5 7.63158L72.8963 10L71.6037 6.18421L75 3.81579H70.7925L69.5 0Z" fill="#FFA03F"/>
</svg>
