<svg width="1241" height="577" viewBox="0 0 1241 577" fill="none" xmlns="http://www.w3.org/2000/svg">
<path d="M111.264 456.59C126.941 454.226 163.41 408.525 102.01 377.932C52.8902 353.459 36.8351 387.484 33.5331 396.83C34.8075 408.973 42.2825 432.323 67.3691 428.988C83.5956 426.831 106.685 372.975 80.7394 347.462C49.4028 316.648 10.9525 337.293 2.72225 347.201" stroke="#A4C6D2" stroke-width="1.5" stroke-dasharray="6 6"/>
<path d="M94.4146 462.427C94.3442 462.217 94.405 461.985 94.5688 461.835L107.924 449.631C108.085 449.484 108.316 449.443 108.517 449.525C108.719 449.607 108.855 449.798 108.866 450.015L109.227 456.823C109.238 457.034 109.129 457.234 108.945 457.34L107.95 457.913L109.09 457.773C109.3 457.748 109.508 457.842 109.626 458.018L113.425 463.679C113.538 463.848 113.55 464.063 113.46 464.243C113.454 464.256 113.447 464.268 113.44 464.281C113.327 464.467 113.118 464.573 112.901 464.552L94.8936 462.808C94.6721 462.787 94.4846 462.638 94.4144 462.427L94.4146 462.427ZM108.084 456.539L107.804 451.263L97.2812 460.878L105.037 458.292L108.084 456.539ZM111.826 463.318L108.882 458.93L105.393 459.358L97.6372 461.944L111.826 463.318Z" fill="#A4C6D2"/>
<path d="M1171.2 186.905C1179.85 193.09 1187.67 231.555 1141.6 231.193C1104.74 230.904 1105.54 205.643 1106.43 199.041C1110.91 192.157 1122.52 180.448 1136.5 190.078C1145.55 196.307 1142.88 235.585 1119.55 242.969C1091.39 251.887 1074.71 227.825 1072.82 219.387" stroke="#FFA03F" stroke-width="1.5" stroke-dasharray="6 6"/>
<path d="M1162.9 178.282C1162.8 178.387 1162.76 178.544 1162.82 178.684L1167.07 190.055C1167.12 190.192 1167.24 190.288 1167.39 190.3C1167.54 190.312 1167.68 190.239 1167.75 190.113L1170.05 186.145C1170.12 186.022 1170.12 185.869 1170.04 185.75L1169.62 185.104L1170.26 185.534C1170.37 185.614 1170.53 185.62 1170.65 185.551L1174.66 183.316C1174.77 183.25 1174.85 183.125 1174.85 182.989C1174.85 182.98 1174.85 182.97 1174.85 182.961C1174.84 182.815 1174.75 182.688 1174.61 182.634L1163.31 178.2C1163.17 178.145 1163.01 178.177 1162.9 178.282L1162.9 178.282ZM1169.28 185.967L1167.5 189.042L1164.14 180.082L1167.99 183.991L1169.28 185.967ZM1173.59 183.046L1170.49 184.778L1168.53 183.461L1164.68 179.552L1173.59 183.046Z" fill="#FFA03F"/>
<path d="M700.902 345.834L700.949 345.866L700.956 345.904L700.999 345.93L700.974 345.964L700.96 345.997L700.967 346.048L700.993 346.084L701.015 346.048L701.06 346.013L701.124 346.024L701.128 346.062L701.109 346.126L701.116 346.165L701.124 346.215L701.114 346.28L701.123 346.337L701.159 346.331L701.22 346.323L701.271 346.313L701.34 346.302L701.407 346.283L701.411 346.311L701.407 346.342L701.396 346.405L701.411 346.444L701.458 346.429L701.534 346.436L701.537 346.478L701.535 346.529L701.543 346.577L701.507 346.611L701.456 346.67L701.416 346.675L701.344 346.658L701.304 346.653L701.261 346.658L701.293 346.736L701.305 346.797L701.299 346.826L701.261 346.864L701.286 346.889L701.328 346.882L701.364 346.928L701.348 346.961L701.312 346.987L701.268 347.033L701.205 347.075L701.199 347.105L701.205 347.155L701.233 347.203L701.275 347.215L701.279 347.173L701.335 347.144L701.387 347.208L701.439 347.2L701.484 347.184L701.522 347.167L701.568 347.151L701.639 347.141L701.647 347.189L701.622 347.223L701.553 347.236L701.511 347.24L701.454 347.258L701.414 347.267L701.377 347.277L701.332 347.318L701.31 347.362L701.286 347.407L701.272 347.458L701.256 347.492L701.221 347.529L701.185 347.551L701.184 347.615L701.202 347.652L701.288 347.63L701.305 347.597L701.326 347.53L701.348 347.497L701.387 347.483L701.443 347.504L701.471 347.499L701.511 347.494L701.561 347.487L701.568 347.423L701.596 347.4L701.68 347.404L701.731 347.41L701.772 347.404L701.805 347.367L701.85 347.32L701.878 347.304L701.917 347.3L701.968 347.302L701.999 347.3L702.025 347.294L702.114 347.301L702.171 347.294L702.209 347.287L702.246 347.249L702.295 347.242L702.34 347.215L702.365 347.19L702.369 347.148L702.346 347.123L702.297 347.13L702.252 347.117L702.253 347.066L702.261 347.033V346.983L702.295 346.979L702.335 346.972L702.369 346.956L702.399 346.929L702.413 346.889L702.418 346.859L702.414 346.831L702.42 346.726L702.361 346.684L702.312 346.683L702.254 346.688L702.218 346.726L702.182 346.784L702.156 346.754L702.114 346.722L702.117 346.661L702.104 346.59L702.055 346.549L702.114 346.533L702.086 346.483L702.054 346.469L702.019 346.442L701.968 346.44L701.952 346.402L701.926 346.366L701.822 346.283L701.751 346.281L701.728 346.255L701.711 346.215L701.704 346.165L701.68 346.133L701.634 346.044H701.571L701.561 346.017L701.534 345.979L701.492 345.975L701.458 345.972L701.454 345.929L701.467 345.89L701.464 345.807L701.462 345.777L701.488 345.753L701.511 345.71L701.549 345.685L701.539 345.636L701.541 345.615L701.543 345.574L701.54 345.555L701.537 345.543L701.508 345.489L701.458 345.485L701.416 345.49L701.387 345.494L701.312 345.527L701.272 345.533L701.215 345.542L701.171 345.538L701.164 345.489L701.165 345.428L701.212 345.402L701.205 345.363L701.259 345.32L701.264 345.231L701.255 345.201L701.202 345.188L701.14 345.209L701.088 345.255L701.06 345.258L701.033 345.239L700.995 345.242L701.002 345.282L700.997 345.313L700.963 345.366L700.953 345.416L700.961 345.467L700.946 345.511L700.898 345.533L700.905 345.579L700.891 345.611L700.905 345.664L700.907 345.668L700.923 345.708L700.922 345.723L700.914 345.773L700.902 345.834Z" fill="#E6E1FF"/>
<path d="M701.011 346.486L701.023 346.433L700.977 346.387L700.951 346.363L700.927 346.336L700.894 346.311L700.855 346.317L700.841 346.367L700.775 346.399L700.786 346.369L700.795 346.345L700.792 346.305L700.757 346.271L700.701 346.32L700.653 346.326L700.612 346.322L700.596 346.357L700.58 346.388L700.575 346.419L700.588 346.449L700.596 346.486L700.557 346.503L700.524 346.549L700.511 346.591L700.46 346.601L700.42 346.607L700.384 346.622L700.39 346.653L700.394 346.68L700.403 346.758L700.326 346.781L700.336 346.841L700.342 346.88L700.366 346.909L700.396 346.904L700.435 346.9L700.472 346.871L700.507 346.836L700.539 346.86L700.513 346.884L700.509 346.917L700.513 346.946L700.5 346.989L700.483 347.02L700.449 347.118L700.42 347.192L700.357 347.252L700.394 347.277L700.411 347.317L700.441 347.331L700.449 347.371L700.476 347.365L700.504 347.343L700.55 347.323L700.587 347.362L700.63 347.375L700.685 347.335L700.716 347.277L700.749 347.235L700.78 347.228L700.839 347.22L700.843 347.188L700.844 347.129L700.885 347.122L700.919 347.087L700.931 347.017L700.963 346.968L700.95 346.939L700.919 346.883L700.913 346.824L700.903 346.783L700.908 346.745L700.901 346.702L700.903 346.653L700.939 346.607L700.985 346.578L701.028 346.542L701.014 346.514L701.011 346.486Z" fill="#E6E1FF"/>
<path d="M689.444 356.073L689.399 356.029L689.262 356.021L689.106 356.035L689.023 356.006L688.833 356.076L688.765 356.153L688.739 356.182L688.699 356.244L688.668 356.307L688.698 356.35L688.772 356.329L688.795 356.307L688.834 356.224L688.882 356.158L688.955 356.125L689.037 356.099L689.102 356.152L689.132 356.198L689.168 356.173L689.216 356.164L689.27 356.196L689.313 356.169L689.433 356.26L689.463 356.322L689.577 356.303L689.666 356.3L689.705 356.354L689.724 356.427L689.804 356.439L689.884 356.454L689.93 356.505L689.906 356.596L689.893 356.644L689.934 356.652L690.075 356.618L690.212 356.56L690.259 356.542L690.334 356.541L690.445 356.534L690.384 356.408L690.259 356.417L690.219 356.399L690.15 356.276L690.064 356.291L689.954 356.268L689.928 356.235L689.847 356.204L689.573 356.15L689.444 356.073Z" fill="#E6E1FF"/>
<path d="M690.573 356.806L690.473 356.803L690.486 356.887L690.55 356.917L690.647 356.903L690.739 356.891H690.74L690.796 356.882L690.848 356.873L691.011 356.878L691.037 356.915L691.072 356.894L691.096 356.842L691.084 356.768L691.123 356.784L691.194 356.8L691.248 356.782L691.323 356.732L691.396 356.711L691.471 356.699L691.538 356.679L691.462 356.584L691.288 356.57L691.17 356.513L691.048 356.483L690.891 356.515L690.779 356.563L690.763 356.711L690.826 356.749L690.839 356.815L690.787 356.831L690.753 356.839H690.726L690.635 356.835L690.573 356.806Z" fill="#E6E1FF"/>
<path d="M690.08 356.9L689.816 356.922L689.781 357.004L689.876 357.029L689.927 357.052L689.968 357.074L690.013 357.107L690.056 357.073L690.125 357.031L690.149 356.989L690.114 356.942L690.08 356.9Z" fill="#E6E1FF"/>
<path d="M701.507 336.082C691.905 336.082 684.094 343.894 684.094 353.496C684.094 363.096 691.905 370.907 701.507 370.907C711.108 370.907 718.919 363.096 718.919 353.496C718.919 343.894 711.108 336.082 701.507 336.082ZM711.63 348.567L711.643 348.605L711.652 348.637L711.676 348.66L711.695 348.63L711.744 348.617L711.755 348.614L711.791 348.607L711.815 348.612V348.613L711.814 348.638L711.791 348.715L711.827 348.781L711.856 348.819L711.877 348.857L711.884 348.865L711.907 348.886L711.921 348.916L711.926 348.943L711.909 348.955L711.901 348.959L711.885 349.003L711.914 349.082L711.917 349.139L711.927 349.204L711.922 349.235V349.237L711.931 349.304L711.947 349.332L711.949 349.366L711.937 349.392L711.895 349.401L711.876 349.376L711.826 349.366L711.792 349.373L711.747 349.394L711.709 349.408L711.68 349.448L711.645 349.477L711.562 349.479L711.477 349.444L711.455 349.406L711.423 349.395L711.376 349.388L711.341 349.366L711.297 349.356L711.258 349.366L711.22 349.369L711.174 349.351L711.139 349.343L711.128 349.325L711.117 349.304L711.114 349.274L711.111 349.254L711.068 349.196L711.046 349.158L710.999 349.123L710.99 349.067L711.009 349.032L711.039 348.97L711.045 348.946L711.06 348.87L711.069 348.827L711.072 348.783L711.098 348.747L711.092 348.699L711.081 348.644L711.084 348.605L711.133 348.596L711.165 348.583L711.152 348.561L711.117 348.539L711.085 348.546L711.046 348.51L711.014 348.467L711.002 348.45L710.964 348.395L710.952 348.379L710.916 348.359L710.861 348.31L710.826 348.292L710.796 348.264L710.787 348.2L710.743 348.17L710.684 348.108L710.638 347.936L710.602 347.904L710.591 347.844L710.609 347.798L710.573 347.771L710.53 347.753L710.492 347.772L710.468 347.793L710.456 347.756V347.697L710.46 347.616L710.479 347.465L710.487 347.405L710.497 347.315L710.54 347.277L710.566 347.231L710.593 347.25L710.648 347.277L710.709 347.202L710.677 347.191L710.662 347.159L710.725 347.143L710.752 347.153L710.795 347.172L710.822 347.143L710.826 347.097L710.847 347.075L710.956 347.091L710.981 347.084L711.019 347.012L711.021 346.986L711.04 346.937L711.059 346.919L711.106 346.9L711.155 346.894L711.177 346.94L711.223 346.967L711.243 346.978H711.307L711.364 346.97L711.396 347.011L711.434 347.036L711.526 347.06L711.6 347.071L711.612 347.136L711.635 347.19L711.668 347.236L711.703 347.261L711.735 347.298L711.74 347.337L711.731 347.388L711.695 347.427L711.642 347.451L711.588 347.435L711.555 347.415L711.512 347.414L711.463 347.398L711.434 347.391L711.42 347.388H711.372L711.361 347.387L711.34 347.429L711.323 347.468L711.248 347.478C711.248 347.478 711.247 347.472 711.227 347.489L711.204 347.508L711.21 347.598L711.258 347.634L711.252 347.666L711.171 347.669L711.076 347.692L711.102 347.754L711.165 347.778L711.227 347.807L711.249 347.862L711.272 347.887L711.325 347.926L711.372 347.949L711.407 347.964H711.431L711.48 347.968L711.511 347.964L711.562 348.179L711.594 348.18L711.623 348.171L711.632 348.168L711.656 348.14L711.67 348.124L711.681 348.11L711.709 348.132L711.744 348.133L711.807 348.182C711.807 348.182 711.803 348.208 711.826 348.229C711.842 348.25 711.871 348.28 711.871 348.28L711.917 348.298L711.959 348.314L711.941 348.358L711.918 348.369L711.917 348.418L711.902 348.449L711.894 348.47L711.861 348.486L711.83 348.48L711.78 348.473L711.739 348.443L711.717 348.433L711.699 348.428L711.679 348.423L711.672 348.434L711.643 348.486L711.621 348.527L711.63 348.567ZM696.045 337.768L696.049 337.763C696.123 337.737 696.198 337.712 696.273 337.687L696.239 337.716L696.234 337.719L696.179 337.763L696.147 337.768L696.039 337.782L696.045 337.768ZM701.508 370.147C693.708 370.147 687.164 364.785 685.353 357.548L685.386 357.566L685.46 357.655L685.612 357.73L685.742 357.793L685.826 357.817L685.931 357.862L686.081 357.938L686.182 357.943L686.283 357.966L686.395 358.032L686.593 358.043L686.723 358.079L686.849 358.003L686.924 357.948L687.234 357.933L687.294 357.932L687.316 357.929L687.388 357.997L687.473 358.028L687.532 358.157L687.674 358.195L687.806 358.255L687.866 358.262L688.062 358.374L688.171 358.319L688.27 358.301L688.454 358.336L688.472 358.454L688.571 358.455L688.667 358.563L688.725 358.531L688.753 358.555L688.79 358.582L688.794 358.586L688.903 358.664L688.912 358.723L688.857 358.752L688.834 358.854L688.914 359.004L688.992 358.991L689.081 359.034L689.188 359.098L689.25 359.229L689.343 359.26L689.376 359.27L689.416 359.289L689.438 359.299L689.521 359.273L689.67 359.385L689.73 359.397L689.901 359.329L689.891 359.27L689.822 359.202L689.889 359.13L689.989 359.117L690.093 359.161L690.153 359.172L690.185 359.246L690.201 359.344L690.234 359.44L690.333 359.445L690.371 359.558L690.387 359.656L690.403 359.772L690.424 359.89L690.395 359.969L690.396 360.112L690.485 360.177L690.385 360.293L690.318 360.383L690.271 360.47L690.293 360.589L690.202 360.701L690.141 360.788L690.074 360.856L690.151 360.964L690.137 361.012L690.11 361.089V361.096L690.108 361.212L690.081 361.293L690.08 361.414L690.096 361.531L690.128 361.627L690.197 361.636L690.224 361.711L690.181 361.798L690.108 361.873L690.069 361.995L690.106 362.108L690.138 362.203L690.231 362.411L690.341 362.49L690.453 362.556L690.545 362.64L690.596 362.712L690.707 362.793L690.839 362.996L690.852 363.024L690.878 363.076L690.898 363.124L690.984 363.294L691.206 363.696L691.371 364.009L691.435 364.159L691.559 364.198L691.673 364.279L691.733 364.325L691.764 364.346L691.79 364.354L691.949 364.399L692.061 364.479L692.19 364.522L692.263 364.577L692.345 364.636L692.367 364.703L692.428 364.902L692.505 365.028L692.528 365.186L692.536 365.365L692.553 365.601L692.569 365.698L692.527 365.844L692.538 365.925L692.618 366.151L692.632 366.268L692.609 366.358L692.605 366.372L692.585 366.414L692.562 366.456L692.574 366.534L692.611 366.65L692.595 366.932L692.553 367.055L692.559 367.087L692.569 367.146V367.154L692.661 367.239L692.68 367.337L692.64 367.496L692.629 367.543L692.636 367.562C692.721 367.613 692.804 367.665 692.887 367.718C693.632 368.162 694.409 368.549 695.216 368.876L695.219 368.868L695.244 368.815L695.254 368.799L695.328 368.508L695.289 368.393L695.203 368.346L695.189 368.236V368.23L695.133 368.138L695.131 368.136L694.999 368.04L694.897 367.897L694.911 367.733L694.976 367.782L695.042 367.932L695.146 367.957L695.216 368.026L695.315 368.03L695.43 367.993L695.663 367.959L695.727 367.842L695.755 367.792L695.862 367.595L695.893 367.54L695.913 367.503L695.932 367.38L695.93 367.221L696.045 367.063L696.08 366.908L696.091 366.853L696.204 367.027L696.223 367.057L696.226 367.046L696.241 366.982L696.257 366.913L696.278 366.77L696.313 366.605L696.398 366.509L696.46 366.401L696.447 366.323L696.431 366.208L696.41 366.071L696.358 365.861L696.386 365.777L696.449 365.684L696.501 365.619L696.599 365.483L696.734 365.35L696.777 365.309L696.792 365.296L696.938 365.233L696.985 365.126L697.093 365.072L697.295 364.941L697.433 364.936L697.459 364.836L697.455 364.676L697.515 364.43L697.608 364.254L697.674 364.025L697.662 363.928L697.681 363.823L697.687 363.583L697.643 363.431L697.66 363.225L697.664 363.189L697.659 363.17L697.616 362.998L697.668 362.689L697.744 362.68L697.765 362.674L697.782 362.616L697.806 362.528L697.825 362.408L697.846 362.287L697.943 362.13L698.097 361.969L698.113 361.81L698.114 361.806L698.124 361.747L698.159 361.58L698.107 361.248L697.993 361.145L697.946 360.973L697.816 360.932L697.666 360.977L697.508 360.841L697.297 360.653L697.101 360.626L697.093 360.625L697.042 360.632L696.938 360.646L696.731 360.601L696.549 360.571L696.508 360.697L696.397 360.61L696.228 360.438L696.081 360.38L695.911 360.329L695.696 360.338L695.594 360.456L695.568 360.281L695.478 360.215L695.349 360.273L695.239 360.471L695.255 360.569L695.172 360.558L695.079 360.614L695.06 360.479L695.088 360.293L695.262 360.228L695.267 360.129L695.252 360.027L695.159 359.943L695.199 359.819L695.109 359.773L695.066 359.599L694.934 359.385L694.794 359.263L694.638 359.148L694.404 359.064L694.317 359.016L693.937 359.093L693.879 359.105H693.875L693.758 359.004L693.655 358.977L693.544 359.035L693.525 358.918L693.523 358.798L693.483 358.748L693.271 358.658C693.271 358.658 693.137 358.716 693.108 358.662C693.079 358.608 693.098 358.585 693.098 358.585L693.106 358.505L693.016 358.457L692.912 358.411L692.804 358.35V358.299L692.803 358.244V358.211L692.728 358.243L692.608 358.293L692.502 358.338L692.457 358.442L692.297 358.449L692.212 358.403L692.073 358.421L691.957 358.437L691.81 358.521L691.758 358.43L691.649 358.366L691.518 358.306L691.417 358.282L691.43 358.377L691.341 358.451L691.25 358.526L691.263 358.605L691.269 358.641L691.279 358.655L691.346 358.749L691.334 358.824L691.327 358.872L691.29 358.878L691.246 358.881L691.171 358.777L691.15 358.64V358.521L691.115 358.405L691.131 358.374L691.171 358.299L691.207 358.231L691.153 358.238L691.095 358.248L691.09 358.25L691.041 358.318L690.973 358.386L690.881 358.461L690.807 358.494L690.624 358.6L690.577 358.687L690.557 358.807L690.595 358.923L690.457 359.203L690.187 358.988L690.051 358.867L689.899 358.931L689.797 359.047L689.666 359.105L689.494 359.118L689.347 358.974L689.264 358.857L689.17 358.723L689.103 358.555L689.102 358.552L689.103 358.351L689.105 358.005V357.917L689.052 357.82L688.929 357.766L688.882 357.748H688.863L688.603 357.753L688.469 357.791L688.361 357.825L688.268 357.856L688.24 357.865L688.096 357.849L688.101 357.822L688.111 357.775L688.165 357.48L688.152 357.282L688.251 357.148L688.193 356.515L688.038 356.542L687.851 356.613L687.744 356.705L687.689 356.854L687.708 356.991L687.638 357.179L687.529 357.256L687.413 357.294L687.323 357.349L687.261 357.458L687.173 357.496L687.114 357.519L687.017 357.534L686.994 357.539L686.987 357.524L686.962 357.468L686.962 357.465L686.795 357.391L686.397 356.892L686.364 356.7L686.339 356.52L686.26 356.216L686.287 356.051L686.354 355.963L686.333 355.825L686.249 355.64L686.244 355.478L686.318 355.31L686.503 355.203L686.519 355.08L686.599 354.95L686.63 354.938L686.688 354.912L686.752 354.886L686.902 354.824L687.035 354.802L687.218 354.816L687.278 354.924L687.363 354.851L687.526 354.866L687.596 354.797L687.561 354.703V354.565L687.718 354.54L687.89 354.514L688.001 354.458L688.133 354.536L688.247 354.557L688.256 354.558L688.306 354.551L688.374 354.54L688.447 354.508L688.54 354.575L688.636 354.679L688.689 354.769L688.785 355.016L688.804 355.133L688.897 355.163L688.912 355.261L689.016 355.359L689.103 355.526L689.182 355.514L689.211 355.449L689.237 355.346L689.21 355.169L689.14 354.982L689.051 354.796L689.028 354.642L688.933 354.535L688.911 354.4L688.922 354.217L688.934 354.017L689.044 353.84L689.11 353.752L689.349 353.494L689.449 353.361L689.551 353.246L689.563 353.182L689.683 353.063L689.623 352.916L689.567 352.824L689.437 352.744L689.419 352.626L689.36 352.517L689.364 352.416L689.347 352.3L689.366 352.251L689.384 352.203L689.419 352.106H689.559L689.494 352.196L689.487 352.216L689.47 352.263L689.465 352.28L689.486 352.416L689.552 352.465L689.659 352.51L689.701 352.383L689.73 352.295L689.74 352.259L689.73 352.246L689.662 352.153L689.716 352.101L689.811 352.07L689.86 351.981L689.866 351.898L689.87 351.839L689.872 351.82L690.013 351.699L689.892 351.698L689.994 351.562L690.068 351.53L690.098 351.517L690.156 351.489L690.254 351.442L690.351 351.428L690.36 351.346L690.327 351.275V351.134L690.305 350.994L690.407 350.882L690.522 350.843L690.624 350.749L690.731 350.79L690.803 350.739L690.831 350.656L690.808 350.519L690.963 350.475L691.056 350.442L691.113 350.396L691.139 350.331L691.212 350.259L691.266 350.37L691.366 350.375L691.415 350.428L691.188 350.503L691.099 350.578L691.009 350.671L691.048 350.786L691.117 350.833L691.227 350.898L691.324 350.879L691.411 350.789L691.435 350.685L691.515 350.553L691.628 350.517L691.7 350.464L691.813 350.289L691.652 350.272L691.493 350.297L691.375 350.195L691.308 350.126L691.226 349.979L691.146 349.851L690.94 349.805L690.945 349.705L691.024 349.712L691.141 349.555L691.154 349.493L691.124 349.418L691.046 349.329L690.91 349.351L690.69 349.465L690.567 349.581L690.391 349.731L690.278 349.906L690.28 349.806L690.35 349.599L690.459 349.519L690.546 349.425L690.605 349.319L690.758 349.137L691.123 349.059L691.298 349.013L691.409 348.958L691.58 349.03L691.786 348.938L691.89 348.842L692.062 348.677L692.046 348.58L692.178 348.519L692.347 348.454L692.465 348.294L692.449 348.199L692.425 348.044L692.296 347.984L692.195 347.959L692.026 348.045L691.736 348.228L691.825 348.154L691.916 347.98L692.033 347.944L692.1 347.874L692.065 347.78L691.998 347.709L691.915 347.702L691.642 347.743L691.56 347.597L691.43 347.519L691.337 347.43L691.241 347.346L691.367 347.267L691.355 347.189L691.234 347.17L691.222 347.069L691.123 346.986L691.057 346.918L690.944 346.954L690.988 346.847L690.968 346.731L690.897 346.658L690.791 346.619L690.711 346.49L690.691 346.359L690.688 346.335L690.634 346.342H690.63L690.612 346.442L690.608 346.466L690.605 346.471L690.531 346.619L690.438 346.673L690.391 346.736L690.303 346.832L690.193 346.87L690.116 346.898L690.042 346.791L689.976 346.759L689.817 346.768L689.771 346.592L689.768 346.49L689.767 346.437V346.434L689.77 346.314L689.776 346.235L689.659 346.253L689.63 346.199L689.561 346.128L689.452 346.204L689.376 346.216L689.294 346.087L689.14 346.021L689.125 346.013L689.086 345.994L688.95 345.922L688.819 346.041L688.614 346.017L688.416 346.019L688.229 346.075L688.255 346.243L688.281 346.405L688.299 346.543L688.389 346.56L688.443 346.749L688.404 346.842L688.249 346.948L688.213 347.095L688.229 347.108L688.268 347.142L688.411 347.263L688.551 347.467L688.641 347.542L688.691 347.585L688.719 347.61L688.699 347.869L688.643 348.047L688.576 348.098L688.506 348.155L688.468 348.187L688.345 348.316L688.396 348.478L688.431 348.534L688.474 348.608L688.476 348.618L688.499 348.776L688.488 349.059L688.421 349.181L688.384 349.178L688.326 349.169L688.22 349.157L688.089 349.037L688.039 348.902L687.926 348.792L687.901 348.652L687.876 348.487L687.848 348.293L687.683 348.222L687.322 348.277L687.131 348.212L687.073 348.196L686.908 348.14L686.776 348.022L686.73 348L686.677 347.976L686.591 347.937L686.419 347.905L686.241 347.848L686.084 347.928L685.958 347.833L685.878 347.739C686.408 346.3 687.134 344.955 688.019 343.735L688.076 343.767L688.079 343.7L688.128 343.668L688.184 343.684L688.273 343.749L688.305 343.705L688.354 343.776L688.37 343.867L688.468 343.895L688.432 344.018L688.465 344.053L688.514 344.108L688.563 344.088L688.623 344.053L688.669 343.993L688.742 343.953L688.753 344.033L688.767 344.125H688.769L688.853 344.164L688.909 344.181L688.92 344.272L688.965 344.386L689.013 344.446L688.925 344.47L688.938 344.548L688.956 344.596L688.989 344.633L688.944 344.679L688.897 344.74L688.837 344.827L688.778 344.904L688.782 344.998L689.017 345.158L688.987 345.229L688.772 345.3L688.689 345.342L688.491 345.344L688.335 345.432L688.293 345.456L688.287 345.471L688.216 345.652L688.233 345.754L688.298 345.772L688.36 345.815L688.512 345.764L688.603 345.658L688.653 345.652L688.662 345.65L688.719 345.641L688.753 345.625L688.759 345.623L688.728 345.507L688.769 345.528L688.806 345.523L688.884 345.496L688.916 345.545L688.995 345.548L689.042 345.591L689.129 345.631L689.159 345.654L689.192 345.685L689.239 345.729L689.267 345.754L689.372 345.74L689.415 345.773L689.353 345.822L689.332 345.838L689.349 345.881L689.35 345.888L689.39 345.892L689.407 345.894L689.511 345.892L689.549 345.875L689.562 345.869L689.679 345.851L689.844 345.815L689.967 345.823L690.084 345.804L690.19 345.815L690.315 345.784L690.309 345.715L690.227 345.73L690.15 345.648L690.042 345.639L689.9 345.569L689.769 345.493L689.819 345.474L689.935 345.443L690.008 345.405L690.1 345.485L690.263 345.431L690.415 345.475L690.387 345.362L690.417 345.29L690.4 345.197L690.352 345.14L690.287 345.138L690.027 345.032L689.953 344.949L689.896 344.865L689.853 344.833L689.878 344.655L689.868 344.566L689.978 344.521L690.05 344.618L690.105 344.661L690.168 344.718L690.275 344.73L690.288 344.794L690.353 344.806L690.4 344.852L690.461 344.91L690.598 344.916L690.687 344.904L690.692 344.85L690.682 344.706L690.77 344.667L690.784 344.596L690.777 344.532L690.972 344.504L690.967 344.304L690.93 344.243L690.857 344.189L690.752 344.202L690.62 344.292L690.579 344.285L690.529 344.292L690.436 344.307L690.332 344.152L690.265 344.042L690.202 344.077L690.17 344.121L690.127 344.18L690.013 344.226L689.949 344.143L689.915 344.102L689.87 344.056L689.855 344.037L689.671 344L689.616 343.952L689.601 343.865L689.654 343.854L689.709 343.781L689.669 343.694L689.771 343.679L689.687 343.625L689.58 343.63L689.528 343.556L689.589 343.506L689.66 343.471V343.378L689.563 343.338L689.559 343.392L689.466 343.394L689.383 343.287L689.284 343.272L689.248 343.268L689.216 343.313L689.192 343.418L689.186 343.45L689.18 343.437L689.158 343.362L689.131 343.27L689.079 343.214L689.018 343.169L688.969 343.101C688.969 343.101 688.875 343.113 688.841 343.117C688.801 343.122 688.817 343.136 688.817 343.136L688.687 343.154L688.652 343.107L688.545 343.178L688.537 343.122L688.538 343.084L688.539 343.052C689.074 342.388 689.656 341.766 690.284 341.192L690.382 341.176L690.563 341.21L690.675 341.29L690.699 341.314L690.726 341.345L690.756 341.341L690.802 341.334L690.88 341.301L690.944 341.331L690.974 341.406L691 341.462L691.218 341.551L691.341 341.582L691.359 341.586L691.369 341.654L691.374 341.684L691.353 341.807L691.456 341.81L691.49 341.904L691.597 341.971L691.613 342.069L691.722 342.131L691.736 342.227L691.684 342.275L691.658 342.379V342.478L691.645 342.54L691.655 342.597L691.753 342.602L691.827 342.57L691.919 342.517L691.974 342.52L692.023 342.523L692.039 342.52L692.199 342.492L692.225 342.55L692.306 342.558L692.408 342.561L692.47 342.591L692.442 342.676L692.455 342.753L692.507 342.826L692.495 342.886L692.398 342.904L692.335 342.873L692.226 342.827L692.044 342.816L691.889 342.842L691.881 342.846L691.803 342.875L691.794 342.877L691.802 342.878L691.858 342.896L691.941 342.917L691.987 342.966L692.15 342.981L692.198 343.033L692.281 343.06L692.366 343.091L692.443 343.079L692.498 343.049L692.558 343.044L692.601 343.094L692.618 343.189L692.652 343.287L692.648 343.405L692.575 343.416L692.59 343.534L692.587 343.632L692.508 343.625L692.428 343.638L692.36 343.707L692.348 343.77L692.411 343.801L692.571 343.777L692.646 343.763L692.682 343.837L692.709 343.914L692.615 343.947L692.514 343.943L692.432 343.918L692.337 343.968L692.251 344.064L692.268 344.161L692.344 344.247L692.293 344.337L692.314 344.451L692.378 344.484L692.405 344.537L692.483 344.526L692.593 344.588L692.632 344.722L692.626 344.802L692.594 344.866L692.645 344.94L692.729 344.848L692.741 344.787L692.798 344.755L692.874 344.745L692.828 344.851L692.758 344.902L692.703 344.949L692.76 345.042L692.844 345.089L692.857 345.164L692.89 345.221L692.896 345.22L692.957 345.21L692.965 345.209L693.015 345.281L693.07 345.321L693.082 345.331L693.089 345.375L693.099 345.428L693.233 345.332L693.241 345.329L693.242 345.331L693.273 345.4L693.348 345.489L693.362 345.587L693.428 345.613L693.457 345.691L693.505 345.764L693.618 345.708L693.664 345.62L693.736 345.569L693.769 345.647L693.843 345.733L693.981 345.71L694.079 345.715L694.13 345.769L694.192 345.799L694.253 345.93L694.3 345.884L694.356 345.835L694.366 345.772L694.335 345.715L694.269 345.647L694.31 345.559L694.374 345.431L694.383 345.349L694.41 345.287L694.412 345.146V345.046L694.433 345.011L694.465 344.961L694.487 344.939L694.513 344.913L694.547 344.848L694.574 344.787L694.561 344.705L694.56 344.548L694.569 344.467L694.59 344.343L694.598 344.285L694.669 344.232L694.695 344.13L694.866 344.084L694.958 344.008L695.053 343.975L695.083 344.053L695.163 344.058L695.212 343.991L695.255 343.983L695.312 343.974L695.328 343.971L695.415 343.897L695.48 343.791L695.507 343.706L695.559 343.638L695.63 343.587L695.759 343.388L695.848 343.333L695.837 343.258L695.817 343.119L695.885 343.171L695.946 343.18L696.057 343.122L696.153 343.091L696.191 343.083L696.272 343.091L696.367 343.057L696.424 343.047L696.5 343.017L696.554 342.987L696.608 342.937L696.643 342.912L696.725 342.922L696.819 342.906L696.862 342.781L696.973 342.724L697.024 342.655L697.105 342.666L697.148 342.578L697.284 342.538L697.38 342.522L697.391 342.46L697.438 342.374L697.552 342.219L697.398 342.242L697.296 342.239L697.17 342.176L697.072 342.191L696.946 342.291L696.871 342.301L696.904 342.138L696.915 342.075L696.867 342.023L696.915 341.939L696.848 341.888L696.79 341.896H696.668L696.57 341.913L696.481 341.845L696.54 341.836L696.617 341.821L696.677 341.812L696.734 341.804L696.809 341.791L696.871 341.803L696.953 341.812L697.017 341.84L697.085 341.889L697.174 341.96L697.206 342.013L697.29 342.039L697.37 342.065L697.455 342.096L697.553 342.101L697.617 342.109L697.668 342.064L697.658 341.982L697.624 341.89L697.514 341.824L697.441 341.737L697.249 341.666L697.162 341.6L697.077 341.575L697.007 341.526L696.945 341.493L696.871 341.526L696.794 341.537L696.693 341.532L696.668 341.489L696.636 341.438L696.643 341.433L696.687 341.376L696.743 341.346L696.814 341.293L696.907 341.238L696.977 341.331L697.043 341.36L697.093 341.412H697.104L697.172 341.42L697.199 341.468L697.254 341.566L697.344 341.613L697.405 341.623L697.485 341.65L697.542 341.623L697.494 341.569L697.443 341.499L697.533 341.444L697.481 341.39L697.468 341.376L697.357 341.332L697.268 341.265L697.133 341.186L697.275 341.165L697.352 341.174L697.47 341.156L697.538 341.081L697.633 341.051L697.679 340.944L697.604 340.856L697.416 340.944V340.802L697.571 340.762L697.558 340.685L697.549 340.627L697.54 340.567L697.424 340.465L697.501 340.453L697.567 340.464L697.651 340.512L697.697 340.405L697.684 340.327L697.537 340.152L697.447 340.204L697.347 340.22L697.4 340.152L697.445 340.068L697.432 340.007L697.42 339.972L697.405 339.932L697.631 339.929H697.685L697.729 339.962L697.827 339.945L697.901 339.897L697.889 339.88L697.851 339.829L697.82 339.785L697.77 339.714L697.694 339.744L697.579 339.762L697.509 339.712L697.628 339.574L697.484 339.556L697.246 339.553L697.236 339.494C697.228 339.437 697.316 339.502 697.316 339.502L697.458 339.483L697.481 339.398L697.509 339.314L697.626 339.178L697.599 339.001L697.842 338.886L697.833 338.827L697.661 338.753L697.527 338.774L697.415 338.831L697.379 338.734L697.467 338.664L697.603 338.643L697.691 338.686L697.964 338.646L698.065 338.51L698.127 338.45L698.172 338.407L698.187 338.394L698.253 338.325L698.343 338.25L698.407 338.161L698.553 338.179L698.664 338.024L698.54 337.981L698.308 338.018L698.243 338.029L698.202 338.033L698.053 338.056L697.724 338.105L697.613 338.184L697.478 338.204L697.343 338.226L697.241 338.22L697.128 338.276L697.027 338.391L696.965 338.484L696.834 338.559L696.813 338.562L696.747 338.572L696.66 338.586L696.59 338.519L696.681 338.464L696.752 338.415L696.807 338.386L696.858 338.32L696.923 338.228L696.855 338.181L696.738 338.178L696.601 338.201L696.577 338.321L696.391 338.386L696.262 338.328L696.157 338.272L696.152 338.27L696.076 338.272L695.955 338.277L695.669 338.363L695.49 338.387L695.229 338.508L695.233 338.462L695.235 338.407L695.384 338.325L695.437 338.306L695.59 338.252L695.923 338.204L696.202 338.154L696.3 338.135L696.66 338.07L696.9 338.074L697.035 338.052L697.122 337.96L697.141 337.836L696.977 337.802L696.917 337.811L696.763 337.815L696.715 337.795L696.695 337.784L696.642 337.783H696.596L696.475 337.778L696.444 337.704L696.423 337.683L696.389 337.651C698.001 337.13 699.72 336.845 701.507 336.845C705.402 336.845 708.981 338.186 711.817 340.426L711.837 340.554L711.891 340.679L711.803 340.709L711.724 340.667L711.684 340.801L711.606 340.777L711.559 340.711L711.531 340.637L711.402 340.678L711.327 340.687L711.324 340.784L711.189 340.748L711.109 340.723L711.016 340.735L710.95 340.801L710.933 340.856L710.92 340.924L710.915 340.938L710.789 340.956L710.713 340.968L710.657 340.96L710.598 340.949L710.682 340.896L710.713 340.836L710.618 340.835L710.571 340.764L710.512 340.754L710.329 340.913L710.232 341.003L710.136 341.019L710.068 341.067L709.969 341.138L709.915 341.168L709.844 341.193L709.838 341.2L709.791 341.236L709.694 341.312L709.689 341.407V341.521L709.589 341.611L709.537 341.656L709.467 341.685L709.39 341.662L709.302 341.58L709.283 341.47L709.332 341.404L709.431 341.314L709.393 341.187L709.323 341.086L709.183 341.053L708.962 341.086L708.958 341.181L709.001 341.23L708.988 341.384L708.982 341.459L708.999 341.57L708.979 341.704L708.961 341.82L708.938 341.917L708.779 341.865L708.735 341.816L708.676 341.806L708.605 341.868L708.562 341.906L708.545 341.921L708.481 342.005L708.426 342.127L708.434 342.183L708.506 342.284L708.571 342.35L708.48 342.364L708.376 342.304L708.296 342.262L708.18 342.257L708.099 342.213L708.028 342.224L708.024 342.339L708.039 342.448L708.101 342.478L708.192 342.578L708.173 342.674L708.063 342.709L707.974 342.724L707.829 342.668L707.784 342.618L707.715 342.536L707.643 342.435L707.605 342.307L707.572 342.219L707.473 342.178L707.373 342.137L707.254 342.097L707.188 342.035L707.115 341.912L706.999 341.779L707.206 341.899L707.297 341.885L707.358 341.929L707.457 341.959L707.61 341.97L707.797 341.977L707.97 341.989L708.071 342.032L708.194 341.973L708.286 341.847L708.354 341.779L708.421 341.719L708.464 341.679L708.501 341.645L708.442 341.505L708.407 341.395L708.311 341.394L708.21 341.333L708.181 341.312L708.08 341.238L708.03 341.217L707.957 341.184L707.86 341.142L707.587 341.089L707.513 341.1L707.356 341.067H707.246L707.098 341.089L707.036 341.06L706.899 341.026L706.947 340.96L706.863 340.896L706.807 340.908L706.716 340.92L706.639 340.932L706.487 341.011L706.419 340.945L706.467 340.901L706.498 340.859L706.604 340.805L706.47 340.675L706.416 340.684L706.376 340.653L706.294 340.608L706.284 340.667L706.294 340.738L706.207 340.792L706.139 340.709L706.198 340.602L706.171 340.552L706.109 340.522L706.063 340.569L706.057 340.664L706.032 340.759L706.024 340.818L705.972 340.845L705.925 340.794L705.916 340.742L705.878 340.726L705.868 340.804L705.827 340.884L705.818 340.896L705.794 340.928L705.792 340.954L705.787 341.004L705.743 341.07L705.711 340.979L705.701 340.924L705.735 340.875L705.746 340.859L705.761 340.816L705.773 340.78L705.725 340.731L705.693 340.721L705.645 340.706L705.605 340.697L705.59 340.695L705.531 340.701V340.798L705.499 340.841L705.427 340.872L705.419 340.946L705.371 340.993L705.3 341.023L705.243 341.032L705.119 340.973L705.053 340.96L705.022 340.952L705.06 341.078L705.033 341.121L704.973 341.107L704.892 341.086L704.927 341.175L704.869 341.185L704.801 341.213L704.736 341.297L704.68 341.286L704.637 341.372L704.568 341.417L704.521 341.502L704.481 341.564L704.476 341.679L704.438 341.812L704.358 341.882L704.293 341.949L704.245 341.955L704.221 341.959L704.254 342.047L704.283 342.119L704.279 342.15L704.276 342.178L704.226 342.242L704.168 342.345L704.113 342.352L704.063 342.4L704.039 342.495L703.941 342.612L703.93 342.627L703.906 342.726L703.838 342.791L703.819 342.889L703.749 342.937L703.7 342.964L703.639 342.972L703.565 343.096L703.54 343.176L703.475 343.224L703.467 343.299L703.542 343.326L703.599 343.318L703.554 343.397L703.554 343.4L703.471 343.452L703.395 343.462L703.377 343.414L703.367 343.39L703.311 343.381L703.255 343.39L703.184 343.42L703.173 343.433L703.137 343.482L703.148 343.494L703.186 343.531L703.225 343.561L703.081 343.625L703.091 343.697L703.037 343.707L702.965 343.719L702.933 343.778L702.941 343.833L702.912 343.838L702.855 343.883L702.832 343.962L702.756 343.976L702.714 344.035L702.627 344.087L702.598 344.147L702.553 344.232L702.607 344.338L702.622 344.448L702.68 344.57L702.728 344.616L702.869 344.578L702.853 344.732L702.752 344.784L702.744 344.859L702.753 344.934L702.829 344.923L702.865 345.031L702.88 345.141L702.981 345.183L703.078 345.203L703.299 345.172L703.384 345.1L703.458 344.976L703.582 344.92L703.64 344.836L703.73 344.804L703.802 344.869L703.83 344.959L703.882 345.047L703.887 345.075L703.895 345.133L703.899 345.156L703.98 345.295L704.119 345.369L704.181 345.397L704.207 345.447L704.145 345.533L704.097 345.578L704.008 345.609L704.021 345.703L703.929 345.715L703.869 345.707L703.888 345.818L703.955 345.9H704.072L704.097 345.841L704.086 345.764L704.113 345.685L704.185 345.654L704.193 345.708L704.239 345.761L704.364 345.723L704.413 345.675L704.418 345.581L704.462 345.501L704.526 345.452L704.711 345.405L704.768 345.284L704.752 345.191L704.734 345.063L704.755 344.948L704.755 344.916L704.756 344.858L704.757 344.833L704.743 344.758L704.755 344.701L704.827 344.689L704.883 344.681L704.968 344.632L705.022 344.602L705.051 344.544L705.022 344.492L705.078 344.37L704.988 344.271L704.924 344.206L704.845 344.198L704.787 344.167L704.727 344.142L704.647 343.758L704.678 343.694L704.666 343.621L704.712 343.578L704.781 343.509L704.802 343.394L704.815 343.382L704.849 343.351L704.85 343.291V343.237L704.918 343.168L705.093 343.107L705.179 343.038L705.201 342.937L705.287 342.868L705.234 342.782L705.166 342.698L705.226 342.613L705.274 342.549L705.334 342.466L705.365 342.407L705.394 342.344L705.52 342.322L705.568 342.374L705.769 342.344L705.873 342.402L705.888 342.492V342.607L705.785 342.699L705.709 342.807L705.666 342.904L705.606 342.988L705.568 343.126L705.472 343.235L705.463 343.256L705.439 343.314L705.429 343.339L705.455 343.502L705.472 343.612L705.529 343.738L705.483 343.819L705.549 343.884L705.578 343.952L705.616 343.946L705.688 343.918L705.744 343.929L705.736 343.989L705.691 344.069L705.825 344.067L705.851 344.121L705.988 344.173L706.052 344.11L706.096 344.008L706.143 343.963L706.246 343.889L706.32 343.862L706.43 343.845L706.52 343.812L706.591 343.801L706.686 343.918L706.764 343.945L706.838 343.935L706.893 343.906L706.954 343.935L706.911 344.031L706.862 344.1L706.756 344.118L706.672 344.09L706.67 344.204L706.528 344.244L706.43 344.223L706.337 344.236L706.261 344.209L706.179 344.315L706.089 344.33L706.016 344.341L705.971 344.405L705.918 344.451L705.931 344.537L705.934 344.559L705.96 344.586L705.982 344.608L706.042 344.637L706.045 344.903L705.979 344.968L705.933 345.031L705.853 345.005L705.826 344.952L705.784 344.921L705.714 344.837L705.606 344.873L705.644 344.998L705.647 345.13L705.622 345.229L705.579 345.312L705.549 345.37L705.558 345.425L705.56 345.444L705.567 345.455L705.61 345.51L705.622 345.585L705.612 345.596L705.54 345.674L705.512 345.619L705.457 345.61L705.431 345.707L705.423 345.785L705.404 345.9L705.322 345.856L705.273 345.883L705.23 345.981L705.179 345.897L705.136 345.865L705.023 345.883L704.978 345.946L704.806 346.048L704.667 346.104L704.593 346.137L704.518 346.163L704.396 346.169L704.328 346.122L704.196 346.086L704.156 346.092L704.086 346.253L703.996 346.267L703.947 346.219L703.888 346.168L703.816 346.182L703.741 346.116L703.714 346.01L703.8 345.958L703.803 345.883L703.755 345.814L703.74 345.722L703.775 345.584L703.788 345.527L703.687 345.466L703.647 345.361L703.709 345.257L703.697 345.173L703.695 345.163L703.665 345.123L703.646 345.094L703.617 345.133L703.568 345.2L703.567 345.202L703.52 345.284L703.463 345.387L703.342 345.443L703.441 345.464L703.291 345.622L703.345 345.706L703.41 345.773L703.419 345.847L703.452 345.934L703.504 346.001L703.529 346.074L703.577 346.235L703.609 346.326L703.517 346.474L703.483 346.475L703.404 346.469L703.318 346.501L703.189 346.541L703.134 346.547L703.039 346.561L703.034 346.621L702.981 346.667L702.926 346.79L702.923 346.899V347.017L702.915 347.071L702.775 347.094L702.719 347.101L702.713 347.103L702.606 347.156L702.534 347.188L702.45 347.256L702.446 347.35L702.422 347.428L702.372 347.492L702.265 347.529L702.24 347.607L702.171 347.638L702.081 347.69L702.032 347.602L701.92 347.6L701.898 347.699L701.926 347.771L701.962 347.878L701.895 347.926L701.816 347.917L701.745 347.927L701.67 347.94L701.554 348.014L701.5 348.057L701.472 348.121L701.486 348.211L701.563 348.22L701.701 348.232L701.821 348.321L701.981 348.402L702.14 348.486L702.2 348.599L702.228 348.766L702.233 348.836L702.236 348.897L702.243 349.016L702.27 349.201L702.199 349.276L702.045 349.236L701.899 349.259L701.769 349.218L701.643 349.233L701.52 349.254L701.343 349.344L701.213 349.322L701.104 349.295L701.071 349.344L701.017 349.413L700.898 349.456L700.843 349.526L700.858 349.609L700.936 349.704L700.99 349.801L701.015 349.965L701.036 350.109L700.99 350.222L700.972 350.37L700.99 350.496L701.028 350.598L701.079 350.649L701.107 350.838L701.122 350.942L701.273 350.961L701.433 350.893L701.494 350.885L701.57 350.978L701.67 351.047L701.773 351.054L701.889 350.972L701.957 350.899L702.084 350.878L702.189 350.865L702.242 350.791L702.269 350.704L702.379 350.603L702.46 350.57L702.49 350.48L702.499 350.393L702.588 350.296L702.599 350.229L702.545 350.153L702.554 350.068L702.62 349.953L702.672 349.859L702.704 349.813L702.778 349.716L702.892 349.635L703.007 349.558L703.039 349.509L703.06 349.377L703.047 349.294L702.976 349.22L703.008 349.151L703.117 349.096L703.127 349.091H703.272L703.423 349.132L703.534 349.157L703.591 349.084L703.635 348.994L703.734 348.958L703.808 348.863L703.853 348.749L704.001 348.725L704.101 348.858L704.174 348.93L704.279 349.046L704.316 349.144L704.415 349.257L704.528 349.303L704.644 349.369L704.759 349.413L704.893 349.457L705.034 349.563L705.156 349.652L705.247 349.701L705.285 349.799L705.305 349.945L705.297 350.03L705.242 350.102L705.187 350.134L705.104 350.144L705.018 350.178L704.917 350.235L704.857 350.225L704.915 350.321L705.049 350.363L705.162 350.412L705.23 350.445L705.234 350.337L705.26 350.226L705.36 350.19L705.412 350.12L705.467 350.047L705.514 349.953L705.516 349.828L705.507 349.767L705.455 349.712L705.437 349.607L705.576 349.525L705.67 349.592L705.562 349.442L705.487 349.366L705.394 349.318L705.323 349.264L705.226 349.172L705.162 349.161L704.92 349.116L704.84 349L704.808 348.92L704.715 348.872L704.575 348.786L704.501 348.714L704.507 348.643L704.512 348.585L704.513 348.545L704.457 348.404L704.629 348.316L704.685 348.568L704.689 348.578L704.706 348.567L704.765 348.526L704.854 348.407L704.976 348.516L704.979 348.544L704.989 348.6L704.99 348.62L705.024 348.718L705.166 348.761L705.299 348.824L705.465 348.948L705.701 348.975L705.804 349.106L705.852 349.416L705.886 349.496L705.989 349.628L706.156 349.729L706.258 349.858L706.348 349.91L706.475 349.911L706.365 350.012L706.403 350.112L706.508 350.117L706.647 350.054L706.757 349.952V349.948L706.769 349.889L706.8 349.876L706.85 349.855L706.816 349.776L706.777 349.766L706.715 349.75H706.708L706.6 349.745L706.545 349.669L706.513 349.591L706.523 349.506L706.486 349.406L706.466 349.304L706.562 349.37L706.632 349.362L706.688 349.353V349.353L706.721 349.284L706.686 349.206L706.788 349.191L706.979 349.181L707.033 349.279L707.099 349.417L707.155 349.513L707.207 349.568L707.219 349.651L707.172 349.742L707.206 349.844L707.313 349.85L707.342 350.033L707.441 350.02L707.519 350.092L707.651 350.137L707.816 350.238L707.894 350.204L707.942 350.112L707.979 350.043L708.099 350.025L708.236 350.087L708.349 350.134L708.476 350.113L708.569 350.036L708.675 349.917L708.788 349.837L708.839 350.017L708.844 350.052L708.854 350.107L708.868 350.204L708.9 350.41L708.922 350.555L708.886 350.73L708.885 350.857L708.874 350.943L708.827 351.055L708.517 351.083L708.439 351.135L708.351 351.105L708.228 351.126L708.095 351.209L708.033 351.24L707.93 351.258L707.826 351.253L707.734 351.221L707.716 351.373L707.637 351.404L707.576 351.414L707.511 351.404L707.397 351.339L707.289 351.332L707.187 351.348L707.115 351.293L707.075 351.276L707.044 351.262H706.919L706.835 351.276L706.753 351.286L706.677 351.213L706.628 351.158L706.526 351.175L706.442 351.187L706.317 351.314L706.262 351.384L706.281 351.509L706.296 351.61L706.242 351.681L706.19 351.753L706.064 351.75L705.997 351.739L705.91 351.711L705.799 351.664L705.662 351.621L705.508 351.559L705.389 351.474L705.22 351.479L705.067 351.438L704.916 351.422L704.838 351.346L704.734 351.34L704.662 351.287L704.618 351.195L704.594 351.141L704.57 351.09L704.624 351.021L704.594 350.832L704.5 350.764L704.534 350.614L704.616 350.451L704.495 350.471L704.408 350.48L704.308 350.497L704.171 350.56L704.04 350.559L703.953 350.53L703.924 350.597L703.821 350.614L703.731 350.605L703.581 350.566L703.459 350.605L703.45 350.614L703.397 350.663L703.328 350.732L703.145 350.757L703.019 350.737L702.932 350.77L702.886 350.862L702.793 350.937L702.653 351.003L702.621 351.07L702.48 351.112L702.377 351.15L702.305 351.204L702.117 351.234L702.039 351.267L701.955 351.28L701.844 351.233L701.755 351.203L701.652 351.219L701.674 351.361L701.652 351.491L701.581 351.609L701.513 351.704L701.513 351.708L701.442 351.779H701.441L701.33 351.857L701.224 352.022L701.22 352.256L701.243 352.42L701.258 352.525L701.277 352.65L701.22 352.825L701.061 353.042L700.994 353.14L700.901 353.237L700.851 353.328L700.752 353.365L700.677 353.589L700.548 353.838L700.528 353.969L700.446 354.128L700.415 354.348L700.28 354.558L700.305 354.72L700.366 354.86L700.375 354.884L700.396 354.941L700.411 354.981L700.417 355.192L700.442 355.333L700.517 355.432L700.544 355.615L700.53 355.763L700.512 355.938L700.456 356.138L700.419 356.311L700.497 356.406L700.541 356.564L700.6 356.663L700.676 356.734L700.752 356.832L700.835 356.944L700.947 356.99L700.997 357.045L701.121 357.156L701.22 357.268L701.28 357.406L701.338 357.48L701.423 357.617L701.452 357.649L701.471 357.673L701.505 357.703L701.593 357.781L701.808 357.94L701.968 358.019L702.131 358.12L702.24 358.145L702.352 358.172L702.434 358.16L702.769 358.005L702.889 357.94L703.014 357.924L703.174 357.896L703.279 357.882L703.462 357.834L703.603 357.79L703.717 357.73L703.844 357.714L703.97 357.566L704.066 357.49L704.362 357.403L704.369 357.401L704.425 357.418L704.458 357.427L704.615 357.509L704.651 357.609L704.679 357.773L704.816 357.839L705.018 357.788L705.131 357.727L705.238 357.712L705.429 357.85L705.487 357.949L705.48 358.206L705.479 358.288L705.45 358.417L705.502 358.729L705.424 358.931L705.623 359.132L705.849 359.353L706.086 359.656L706.129 359.815L706.231 359.928L706.359 360.076L706.399 360.327L706.433 360.42L706.454 360.476L706.478 360.544L706.509 360.753L706.546 360.872L706.568 361.013L706.593 361.227L706.503 361.409L706.493 361.512L706.49 361.746L706.471 361.92L706.465 361.938L706.446 362.002L706.417 362.097L706.426 362.306L706.519 362.483L706.605 362.636L706.729 362.765L706.862 363.086L707.012 363.231L707.194 363.583L707.221 363.768L707.246 363.934L707.33 364.152L707.354 364.215L707.368 364.265L707.397 364.379L707.507 364.528L707.631 364.658L707.751 364.765L707.828 364.966L707.922 365.155L707.945 365.199L707.951 365.213L707.988 365.322L708.04 365.419L708.037 365.652L708.062 365.818L708.116 365.894L708.251 365.936L708.437 365.927L708.45 365.925L708.527 365.902L708.599 365.882L708.931 365.833L709.022 365.733L709.248 365.698L709.331 365.686L709.544 365.569L709.654 365.47L709.654 365.469L709.684 365.419L709.706 365.378L709.776 365.284L709.825 365.188L709.898 365.115L709.949 365.024L710.019 364.927L710.069 364.834L710.088 364.684L710.158 364.588L710.205 364.475L710.278 364.401L710.329 364.31L710.249 364.215L710.434 364.166L710.396 363.916L710.348 363.755L710.27 363.661L710.348 363.607L710.436 363.509L710.555 363.449L710.653 363.414L710.706 363.341L710.694 363.255L710.654 362.718L710.592 362.597L710.564 362.539L710.491 362.465L710.454 362.365L710.458 362.261L710.534 362.206L710.562 362.097L710.617 361.919L710.687 361.826L710.899 361.708L711.097 361.589L711.161 361.454L711.252 361.228L711.283 361.013L711.256 360.851L711.237 360.718L711.227 360.665L711.216 360.579L711.191 360.47L711.178 360.417L711.154 360.314L711.123 360.108L711.042 359.991L710.944 359.903L710.918 359.592L710.958 359.434L710.865 359.366L710.76 359.274L710.743 359.128L710.828 358.866L710.794 358.637L710.837 358.505L710.903 358.387L711.05 358.237L711.106 358.063L711.242 357.827L711.294 357.63L711.385 357.532L711.537 357.405L711.699 357.231L711.865 356.931L712.001 356.719L712.071 356.496V356.35L712.125 356.129L712.204 355.823L712.292 355.576L712.308 355.405L712.346 355.231L712.323 355.077L712.319 355.044L712.316 355.025L712.29 354.88L712.155 354.962L712.038 355.021L711.919 355.065L711.858 355.095L711.747 355.195L711.71 355.244L711.659 355.313L711.48 355.324L711.429 355.328L711.326 355.343L711.216 355.316L711.022 355.156L710.873 355.011L710.858 354.909L710.708 354.786L710.641 354.711L710.547 354.64L710.45 354.569L710.376 354.468L710.263 354.432L710.258 354.43L710.203 354.4L710.136 354.365L710.082 354.207L710.037 354.082L710.032 354.069L710.008 354.027L709.959 353.94L709.857 353.844L709.756 353.716L709.654 353.621L709.6 353.432V353.261L709.563 353.181L709.454 353.03L709.293 352.913L709.163 352.621L709.092 352.523L708.995 352.256L708.922 352.149L708.789 352.029L708.77 351.89L708.669 351.796L708.654 351.681L708.635 351.574L708.739 351.698L708.862 351.764L709.044 351.848L709.153 352.003L709.229 352.132L709.425 352.299L709.563 352.449L709.777 352.584L709.794 352.694L709.816 352.832L709.835 352.971L709.908 353.073L709.956 353.18L710.077 353.413L710.109 353.432L710.173 353.467L710.319 353.547L710.455 353.694L710.561 353.818L710.647 354.03L710.65 354.037L710.668 354.091L710.7 354.193L710.759 354.407L710.806 354.514L711.002 354.683L711.094 354.724L711.24 354.76L711.423 354.646L711.5 354.635L711.668 354.609L711.926 354.456L712.084 354.376L712.176 354.25L712.289 354.172L712.333 354.142V354.126L712.334 353.973L712.543 353.854L712.61 353.761L712.642 353.718L712.683 353.664L712.696 353.651L712.803 353.532L713.017 353.443L713.08 353.323L713.135 353.118L713.203 353.022L713.314 352.808L713.293 352.669L713.403 352.481L713.326 352.323L713.107 352.189L712.987 352.151L712.862 352.083L712.787 351.954L712.692 351.885L712.669 351.747L712.516 351.958L712.507 351.971L712.474 352.072L712.467 352.09L712.23 352.183L712.122 352.228L712.008 352.215L711.927 352.059L711.876 351.923L711.791 351.911L711.731 352.059L711.627 351.936L711.552 351.805L711.431 351.568L711.323 351.418L711.217 351.291L711.145 351.189L711.154 351.049L711.342 350.992L711.535 350.962L711.665 351.085L711.708 351.19L711.748 351.266L711.854 351.393L711.921 351.467L712.047 351.56L712.143 351.603L712.285 351.637L712.408 351.617L712.466 351.607L712.479 351.606L712.612 351.56L712.723 351.542L712.838 351.552L712.941 351.676L713.012 351.751L713.122 351.735L713.413 351.803L713.564 351.865L713.86 351.791L714.297 351.668L714.438 351.704L714.498 351.722L714.559 351.738L714.562 351.739L714.603 351.822L714.837 351.897L714.998 352.013L715.121 352.08L715.259 352.059L715.099 352.31L715.027 352.405L715.221 352.543L715.417 352.57L715.531 352.553L715.606 352.486L715.576 352.292L715.594 352.206L715.683 352.252L715.738 352.409L715.765 352.6L715.766 352.8L715.835 353.045L715.946 353.312L715.965 353.356L715.968 353.363L716.098 353.68L716.249 353.911L716.281 354.131L716.289 354.159L716.338 354.321L716.346 354.328L716.54 354.518L716.725 354.799L716.782 355.017L716.942 355.134L717.067 355.029L717.129 354.881L717.233 354.811L717.27 354.886L717.305 355.106L717.392 355.289L717.448 355.48L717.594 355.514L717.691 355.414L717.665 355.251L717.616 355.114L717.485 354.994L717.414 354.894L717.374 354.815L717.27 354.69L717.249 354.55L717.229 354.414L717.199 354.221L717.229 354.046L717.191 353.797L717.164 353.634L717.172 353.492L717.36 353.264L717.479 353.106L717.61 353.055L717.77 352.806L717.842 352.709L717.911 352.613L718.02 352.402L718.073 352.361L718.114 352.33C718.141 352.716 718.159 353.105 718.159 353.498C718.158 362.692 710.704 370.146 701.507 370.146L701.508 370.147ZM707.571 349.091L707.533 349.152L707.484 349.145L707.43 349.127L707.394 349.15L707.305 349.212L707.249 349.219L707.286 349.151L707.414 349.081L707.435 349.059L707.465 349.033L707.485 348.962L707.436 348.954L707.376 348.946L707.324 348.914L707.281 348.851L707.223 348.757L707.267 348.65L707.3 348.54L707.315 348.505L707.378 348.451L707.384 348.445L707.373 348.393L707.348 348.269L707.38 348.214L707.391 348.181L707.461 348.153L707.439 348.049L707.393 347.986L707.435 347.927L707.477 347.88L707.56 347.788L707.594 347.739L707.623 347.646L707.734 347.63L707.759 347.622L707.789 347.644L707.798 347.665L707.834 347.702L707.962 347.724L708.059 347.71L708.143 347.669L708.154 347.743L708.119 347.773L708.026 347.814L708.001 347.866L707.978 347.92L708.033 347.926H708.149L708.174 347.974L708.175 348.039L708.157 348.081L708.193 348.108H708.26L708.34 348.052L708.442 348.002L708.5 347.972L708.533 347.957L708.571 347.935L708.632 347.926L708.658 347.865L708.79 347.821L708.82 347.855L708.847 347.92L708.907 347.944L708.96 347.967L709.052 348.027L709.088 348.052L709.13 348.088L709.184 348.138L709.248 348.184L709.299 348.2L709.42 348.242L709.515 348.258L709.562 348.301L709.609 348.356L709.626 348.38L709.637 348.415L709.641 348.446L709.635 348.505L709.604 348.599L709.544 348.666L709.51 348.694L709.433 348.748L709.386 348.762L709.333 348.74L709.305 348.717L709.303 348.716L709.271 348.698L709.25 348.74L709.248 348.741L709.207 348.776L709.012 348.795L708.935 348.768L708.891 348.75L708.869 348.719H708.803L708.764 348.768L708.713 348.717L708.667 348.701L708.617 348.692H708.554L708.546 348.638L708.447 348.644L708.179 348.661L708.136 348.723L708.042 348.795L708.005 348.833L707.924 348.873L707.903 348.917L707.872 348.951L707.732 348.999L707.707 348.969L707.621 348.977L707.566 348.999L707.571 349.091ZM708.799 347.555L708.864 347.595L708.891 347.622L708.828 347.7L708.845 347.744L708.764 347.765L708.677 347.797L708.591 347.817L708.465 347.837L708.414 347.817L708.36 347.788L708.351 347.74L708.299 347.722L708.256 347.703L708.232 347.665L708.173 347.635L708.34 347.616L708.388 347.619L708.447 347.577L708.494 347.502L708.57 347.468L708.705 347.429L708.738 347.383L708.805 347.342L708.836 347.322L708.88 347.297L708.888 347.296L708.947 347.278L709.01 347.268L709.057 347.265L709.065 347.309L709.013 347.343L708.975 347.407L708.934 347.432L708.907 347.45L708.894 347.492L708.891 347.493L708.858 347.498L708.792 347.515L708.799 347.555Z" fill="#E6E1FF"/>
<path d="M691.329 333.153L690.988 332.473C691.218 332.357 691.451 332.246 691.685 332.137L692.002 332.829C691.775 332.933 691.551 333.042 691.329 333.153H691.329Z" fill="#E6E1FF"/>
<path d="M701.348 376.995C700.835 376.992 700.325 376.972 699.82 376.937L699.874 376.177C700.362 376.212 700.856 376.231 701.352 376.234L701.348 376.995ZM702.877 376.956L702.832 376.196C703.328 376.168 703.82 376.123 704.306 376.064L704.399 376.819C703.895 376.881 703.388 376.926 702.877 376.956L702.877 376.956ZM698.299 376.779C697.792 376.71 697.288 376.624 696.79 376.522L696.944 375.777C697.425 375.875 697.91 375.958 698.401 376.025L698.299 376.779ZM705.91 376.584L705.768 375.836C706.255 375.743 706.736 375.636 707.212 375.513L707.402 376.25C706.91 376.376 706.412 376.487 705.91 376.584L705.91 376.584ZM695.304 376.169C694.81 376.034 694.323 375.884 693.843 375.718L694.091 374.998C694.555 375.159 695.027 375.305 695.505 375.435L695.304 376.169ZM708.87 375.819L708.632 375.096C709.101 374.941 709.565 374.771 710.021 374.587L710.306 375.293C709.834 375.483 709.355 375.658 708.87 375.819H708.87ZM692.411 375.171C691.939 374.972 691.475 374.76 691.019 374.533L691.359 373.852C691.8 374.072 692.249 374.278 692.705 374.47L692.411 375.171ZM711.702 374.674L711.371 373.989C711.816 373.774 712.253 373.546 712.681 373.304L713.055 373.965C712.613 374.217 712.161 374.453 711.702 374.674L711.702 374.674ZM689.672 373.805C689.231 373.547 688.8 373.276 688.377 372.991L688.802 372.359C689.211 372.636 689.629 372.899 690.056 373.148L689.672 373.805ZM714.361 373.171L713.945 372.534C714.357 372.264 714.76 371.98 715.154 371.684L715.612 372.293C715.205 372.599 714.788 372.892 714.361 373.171H714.361ZM687.137 372.094C686.734 371.782 686.34 371.457 685.958 371.12L686.462 370.549C686.832 370.876 687.213 371.19 687.603 371.492L687.137 372.094ZM716.805 371.334L716.308 370.757C716.683 370.435 717.047 370.101 717.4 369.757L717.931 370.302C717.568 370.658 717.191 371.002 716.805 371.334L716.805 371.334ZM684.845 370.07C684.485 369.71 684.138 369.336 683.802 368.953L684.375 368.452C684.699 368.824 685.036 369.185 685.384 369.534L684.845 370.07ZM718.991 369.198L718.424 368.69C718.755 368.323 719.073 367.945 719.378 367.557L719.975 368.028C719.659 368.428 719.331 368.819 718.991 369.198V369.198ZM682.834 367.77C682.524 367.365 682.227 366.95 681.944 366.525L682.577 366.104C682.851 366.515 683.138 366.916 683.437 367.307L682.834 367.77ZM720.882 366.796L720.255 366.365C720.535 365.958 720.801 365.542 721.054 365.118L721.708 365.508C721.447 365.946 721.171 366.376 720.882 366.796V366.796ZM681.136 365.228C680.882 364.788 680.641 364.338 680.415 363.88L681.097 363.545C681.316 363.987 681.548 364.421 681.794 364.848L681.136 365.228ZM722.448 364.167L721.769 363.822C721.994 363.383 722.204 362.937 722.4 362.481L723.099 362.782C722.897 363.252 722.679 363.714 722.448 364.167V364.167ZM679.785 362.49C679.59 362.021 679.41 361.543 679.245 361.059L679.966 360.813C680.125 361.282 680.299 361.744 680.488 362.198L679.785 362.49ZM723.657 361.356L722.939 361.102C723.104 360.639 723.253 360.168 723.388 359.692L724.121 359.899C723.983 360.391 723.827 360.877 723.657 361.357L723.657 361.356ZM678.8 359.595C678.669 359.105 678.552 358.608 678.453 358.105L679.198 357.958C679.296 358.443 679.407 358.924 679.535 359.398L678.8 359.595ZM724.487 358.414L723.743 358.255C723.845 357.775 723.932 357.289 724.004 356.798L724.757 356.908C724.683 357.415 724.593 357.918 724.487 358.414L724.487 358.414ZM678.203 356.596C678.137 356.089 678.086 355.576 678.053 355.075L678.813 355.026C678.845 355.52 678.894 356.011 678.958 356.497L678.203 356.596ZM724.927 355.39L724.169 355.328C724.208 354.84 724.231 354.347 724.239 353.85L725 353.862C724.993 354.376 724.968 354.884 724.927 355.39V355.39ZM678 353.547V353.496C678 353 678.014 352.507 678.046 352.018L678.806 352.067C678.776 352.539 678.761 353.016 678.761 353.496L678 353.547ZM724.215 352.369C724.19 351.874 724.15 351.382 724.094 350.896L724.851 350.809C724.908 351.312 724.949 351.821 724.974 352.333L724.215 352.369ZM678.944 350.592L678.189 350.496C678.255 349.987 678.335 349.483 678.432 348.985L679.179 349.13C679.085 349.612 679.007 350.099 678.944 350.592L678.944 350.592ZM723.878 349.431C723.791 348.943 723.687 348.461 723.569 347.984L724.307 347.801C724.43 348.293 724.536 348.792 724.627 349.296L723.878 349.431ZM679.509 347.687L678.773 347.493C678.904 346.999 679.051 346.51 679.211 346.028L679.934 346.269C679.777 346.735 679.635 347.208 679.509 347.687V347.687ZM723.165 346.561C723.014 346.091 722.848 345.625 722.668 345.168L723.377 344.889C723.563 345.363 723.733 345.843 723.89 346.33L723.165 346.561ZM680.448 344.882L679.744 344.592C679.939 344.119 680.147 343.653 680.371 343.196L681.054 343.531C680.838 343.973 680.636 344.424 680.448 344.882L680.448 344.882ZM722.082 343.811C721.871 343.365 721.647 342.926 721.408 342.496L722.074 342.127C722.32 342.571 722.552 343.024 722.77 343.487L722.082 343.811ZM720.651 341.227C720.384 340.81 720.104 340.405 719.812 340.008L720.424 339.555C720.726 339.966 721.016 340.385 721.291 340.815L720.651 341.227ZM718.895 338.846C718.577 338.469 718.247 338.102 717.905 337.746L718.455 337.22C718.807 337.587 719.148 337.966 719.477 338.356L718.895 338.846ZM716.847 336.712C716.483 336.378 716.108 336.057 715.723 335.748L716.198 335.156C716.597 335.475 716.984 335.806 717.361 336.151L716.847 336.712ZM714.538 334.86C714.136 334.577 713.721 334.307 713.299 334.05L713.694 333.401C714.131 333.666 714.559 333.945 714.976 334.237L714.538 334.86ZM712.009 333.321C711.572 333.094 711.127 332.88 710.674 332.679L710.982 331.984C711.45 332.19 711.91 332.412 712.362 332.647L712.009 333.321ZM693.362 332.254L693.09 331.544C693.563 331.361 694.05 331.193 694.536 331.042L694.761 331.769C694.288 331.917 693.821 332.078 693.362 332.254H693.362ZM709.301 332.126C708.837 331.958 708.369 331.804 707.894 331.664L708.108 330.934C708.598 331.077 709.083 331.237 709.561 331.411L709.301 332.126ZM696.188 331.378L696.011 330.638C696.505 330.52 697.005 330.417 697.51 330.331L697.637 331.081C697.149 331.165 696.666 331.264 696.188 331.378L696.188 331.378ZM706.461 331.296C705.981 331.19 705.497 331.098 705.007 331.023L705.123 330.271C705.629 330.349 706.13 330.444 706.626 330.554L706.461 331.296ZM699.104 330.878L699.026 330.122C699.529 330.069 700.038 330.033 700.551 330.012L700.581 330.773C700.083 330.792 699.592 330.828 699.104 330.878H699.104ZM703.538 330.844C703.05 330.801 702.557 330.772 702.061 330.761L702.079 330C702.592 330.012 703.101 330.042 703.605 330.086L703.538 330.844Z" fill="#E6E1FF"/>
<path d="M681.791 342.153L681.133 341.773C681.262 341.549 681.394 341.328 681.53 341.11L682.177 341.512C682.045 341.724 681.917 341.937 681.791 342.153Z" fill="#E6E1FF"/>
<path d="M688.806 333.35C689.316 332.846 690.076 333.614 689.55 334.131L687.417 336.242L688.574 341.008L687.786 341.787L685.824 337.845L684.228 339.424L684.369 340.644L683.746 341.261L683.026 339.873L681.646 339.139L682.27 338.521L683.482 338.669L685.078 337.09L681.156 335.085L681.945 334.304L686.657 335.475L688.806 333.35Z" fill="#E6E1FF"/>
<path d="M1224.08 521.487C1223.36 520.661 1222.15 520.527 1221.26 521.176C1219.75 522.264 1218.66 523.873 1218.19 525.654L1208.32 513.33C1207.55 512.361 1206.14 512.206 1205.1 512.973L1199 517.862L1194.67 512.463C1193.9 511.495 1192.49 511.339 1191.46 512.106L1173.58 526.415C1172.62 527.19 1172.46 528.597 1173.23 529.633L1177.55 535.031L1171.44 539.92C1170.48 540.695 1170.32 542.103 1171.09 543.138L1188.73 565.18C1189.51 566.148 1190.92 566.304 1191.92 565.566L1216.49 545.893C1216.48 546.265 1216.44 546.668 1216.43 547.04L1212.37 549.678C1210.76 550.722 1211.29 553.358 1213.45 553.462C1214.53 553.514 1216.13 553.148 1219.2 553.013C1222 553.764 1223.45 554.434 1224.51 554.687C1226.76 555.208 1227.92 552.69 1226.55 551.282L1223.16 547.82C1223.43 546.628 1223.45 546.188 1224.33 540.043C1224.33 540.043 1230.66 544.443 1232.77 545.932C1233.75 546.616 1235.13 546.363 1235.82 545.387C1236.38 544.567 1236.34 543.442 1235.68 542.69C1233.14 539.831 1225.62 531.193 1225.62 531.193L1226.03 528.049C1226.4 525.68 1225.64 523.29 1224.08 521.488L1224.08 521.487ZM1174.57 528.559C1174.36 528.298 1174.43 527.933 1174.67 527.687L1192.54 513.379C1192.8 513.171 1193.16 513.245 1193.41 513.476L1197.73 518.875L1196.43 519.918L1193.3 516.008C1193 515.636 1192.49 515.614 1192.16 515.882L1177.27 527.806C1176.89 528.104 1176.87 528.61 1177.1 528.975L1180.23 532.885L1178.93 533.928L1174.61 528.529L1174.57 528.559ZM1178.9 528.632L1192.49 517.751L1195.12 521.028L1181.53 531.908L1178.9 528.632ZM1172.39 542.094C1172.18 541.833 1172.26 541.468 1172.49 541.222L1206.18 514.245C1206.44 514.037 1206.81 514.111 1207.06 514.342L1213.05 521.826C1209.3 526.84 1205.06 531.46 1200.33 535.551L1200 535.142C1199.23 534.174 1197.82 534.018 1196.78 534.785L1194.59 536.544C1193.62 537.319 1193.46 538.727 1194.23 539.762L1194.53 540.134C1189.47 543.816 1184.04 546.946 1178.38 549.578L1172.39 542.094ZM1195.53 538.719C1195.32 538.458 1195.4 538.093 1195.63 537.847L1197.83 536.089C1198.09 535.88 1198.45 535.954 1198.7 536.185L1200.46 538.382C1200.67 538.643 1200.62 539.045 1200.36 539.253L1198.16 541.012C1197.9 541.221 1197.54 541.146 1197.29 540.916L1195.53 538.719ZM1190.04 564.136L1179.46 550.918C1185.14 548.324 1190.55 545.156 1195.6 541.475L1196.02 541.996C1196.79 542.964 1198.2 543.12 1199.24 542.353L1201.43 540.594C1202.4 539.819 1202.56 538.411 1201.79 537.376L1201.37 536.855C1206.1 532.764 1210.38 528.181 1214.12 523.167L1217.91 527.895L1217.71 530.316L1205.37 539.334C1204.41 540.042 1204.16 541.405 1204.9 542.403C1205.49 543.214 1206.57 543.505 1207.5 543.132L1217.02 539.233L1216.68 543.605L1190.91 564.233C1190.65 564.441 1190.25 564.397 1190.04 564.136L1190.04 564.136ZM1223.9 531.342C1223.84 531.573 1223.92 531.818 1224.13 532.012L1234.47 543.777C1234.9 544.232 1234.28 544.91 1233.81 544.552L1224.26 537.896C1223.73 537.531 1223.05 537.829 1222.94 538.463C1221.83 546.076 1221.9 546.389 1221.5 547.804C1221.44 548.102 1221.5 548.415 1221.72 548.608L1225.44 552.413C1225.71 552.681 1225.43 553.091 1225.19 553.099C1224.89 553.099 1224.08 552.704 1219.61 551.395C1219.52 551.35 1219.38 551.335 1219.28 551.358C1215.03 551.702 1213.93 551.851 1213.56 551.844C1213.18 551.837 1213.07 551.315 1213.36 551.144L1217.73 548.2C1217.98 548.059 1218.11 547.768 1218.11 547.463C1218.04 545.995 1218.2 545.436 1218.75 538.032C1218.79 537.392 1218.19 536.952 1217.59 537.191L1206.82 541.597C1206.54 541.702 1206.25 541.568 1206.14 541.285C1206.03 541.069 1206.13 540.808 1206.31 540.659L1218.97 531.44C1219.16 531.291 1219.28 531.068 1219.34 530.837L1219.58 527.775C1219.63 527.611 1219.49 524.609 1222.3 522.545C1222.45 522.426 1222.72 522.456 1222.83 522.605C1224.1 524.034 1224.67 525.963 1224.39 527.833L1223.9 531.342Z" fill="#A4C6D2" fill-opacity="0.31"/>
<path d="M772.707 523.077C772.722 523.137 772.745 523.194 772.776 523.252L778.595 533.95C778.603 533.964 778.617 533.972 778.624 533.986L785.69 546.616C785.882 546.961 786.306 547.103 786.668 546.944C786.844 546.866 804.263 539.04 804.111 520.479C804.107 520.143 803.891 519.851 803.572 519.753C803.251 519.654 802.904 519.773 802.713 520.047C802.694 520.074 802.203 520.754 801.292 521.758C801.283 521.763 801.273 521.759 801.264 521.764C784.071 529.152 773.994 522.323 773.895 522.253C773.6 522.049 773.205 522.072 772.939 522.31C772.722 522.505 772.636 522.803 772.707 523.077L772.707 523.077ZM786.678 545.231L780.215 533.675C791.997 532.988 799.506 526.113 802.501 522.746C801.44 536.8 789.557 543.747 786.678 545.231L786.678 545.231ZM798.494 524.478C794.636 527.816 788.189 531.852 779.373 532.16L775.348 524.759C779.042 526.366 787.002 528.471 798.494 524.477L798.494 524.478Z" fill="#FFA03F" fill-opacity="0.38"/>
<path d="M759.012 518.028C759.4 518.383 759.43 518.553 759.207 519.034L757.91 521.759C757.505 522.628 757.422 523.523 757.634 524.343C757.845 525.16 758.352 525.904 759.125 526.464L761.509 528.165C762.061 528.558 762.111 528.736 761.817 529.364L761.258 530.54C761.03 531.014 760.803 531.49 760.583 531.965C760.244 532.696 760.114 533.422 760.192 534.12C760.193 534.124 760.19 534.127 760.191 534.131C760.209 534.287 760.237 534.44 760.276 534.591C760.489 535.415 761.014 536.149 761.814 536.731L764.155 538.404C764.7 538.801 764.755 538.997 764.466 539.602L764.109 540.347C763.805 540.98 763.501 541.614 763.21 542.253C762.668 543.437 762.697 544.636 763.274 545.662C763.292 545.715 763.3 545.77 763.331 545.82C763.61 546.284 763.996 546.696 764.482 547.048L766.824 548.72C767.383 549.122 767.43 549.304 767.138 549.919L765.924 552.474C765.484 553.412 765.378 554.32 765.592 555.148C765.806 555.976 766.337 556.717 767.174 557.32L769.508 558.993C770.001 559.346 770.039 559.465 769.85 560.038C769.72 560.434 769.938 560.876 770.341 561.008C770.745 561.14 771.179 560.918 771.312 560.517C771.708 559.303 771.449 558.501 770.41 557.747L768.073 556.071C767.012 555.304 766.759 554.312 767.314 553.13L768.527 550.577C769.139 549.294 768.878 548.307 767.724 547.473L765.385 545.804C765.074 545.579 764.834 545.325 764.665 545.049C764.652 545.019 764.649 544.986 764.631 544.957C764.264 544.351 764.259 543.658 764.609 542.893C764.897 542.264 765.196 541.639 765.497 541.016L765.857 540.266C766.461 538.998 766.202 537.981 765.053 537.159L762.72 535.489C762.123 535.054 761.787 534.539 761.718 533.958L761.717 533.956C761.669 533.54 761.756 533.087 761.977 532.613C762.195 532.142 762.419 531.673 762.643 531.206L763.207 530.018C763.814 528.728 763.554 527.741 762.401 526.918L760.027 525.222C759.076 524.532 758.804 523.481 759.302 522.415L760.598 519.692C761.109 518.597 760.935 517.711 760.052 516.898C759.739 516.61 759.253 516.632 758.966 516.944C758.678 517.258 758.704 517.743 759.012 518.028L759.012 518.028Z" fill="#FFA03F" fill-opacity="0.38"/>
<path d="M763.641 516.911C764.025 517.268 764.06 517.434 763.834 517.919L762.54 520.643C762.134 521.513 762.05 522.408 762.263 523.228C762.474 524.044 762.982 524.787 763.756 525.348L764.462 525.852C764.467 525.855 764.467 525.859 764.472 525.861C764.475 525.863 764.475 525.863 764.476 525.862L766.139 527.049C766.692 527.442 766.741 527.62 766.447 528.248L765.891 529.42C765.663 529.895 765.435 530.372 765.215 530.849C764.875 531.582 764.744 532.309 764.823 533.007C764.824 533.008 764.822 533.011 764.823 533.014C764.842 533.171 764.869 533.322 764.908 533.473C765.122 534.299 765.647 535.032 766.446 535.611C766.945 535.974 767.446 536.331 767.945 536.688L768.787 537.288C769.332 537.685 769.388 537.885 769.1 538.483L768.801 539.106C768.478 539.781 768.154 540.457 767.843 541.134C767.289 542.35 767.323 543.585 767.944 544.627C768.222 545.089 768.608 545.501 769.095 545.855L771.437 547.528C771.547 547.607 771.64 547.683 771.72 547.762C771.72 547.764 771.721 547.766 771.723 547.765C771.905 547.947 772.051 548.091 771.751 548.725L770.538 551.279C770.098 552.217 769.991 553.128 770.205 553.955C770.418 554.779 770.95 555.523 771.787 556.126L774.121 557.798C774.613 558.151 774.65 558.271 774.464 558.843C774.333 559.24 774.551 559.676 774.954 559.813C775.357 559.945 775.792 559.725 775.924 559.322C776.325 558.105 776.063 557.306 775.023 556.552L772.686 554.877C771.625 554.113 771.371 553.117 771.928 551.935L772.522 550.686C776.136 552.694 781.454 552.883 782.208 552.688C783.517 552.35 784.172 551.373 783.833 550.063L783.825 550.033L770.247 521.164C770.217 521.102 770.18 521.044 770.134 520.991C770.057 520.899 769.341 520.102 768.338 520.362C767.585 520.557 765.66 522.712 764.656 524.103L764.654 524.1C763.703 523.41 763.433 522.358 763.931 521.292L765.224 518.568C765.738 517.476 765.564 516.588 764.681 515.777C764.368 515.489 763.881 515.509 763.595 515.822C763.306 516.139 763.332 516.63 763.641 516.911L763.641 516.911ZM768.914 521.943L782.38 550.555C782.431 550.752 782.501 551.024 781.828 551.2C781.737 551.217 781.51 551.227 781.193 551.221L768.293 522.518C768.264 522.452 768.215 522.403 768.172 522.349C768.432 522.09 768.633 521.908 768.723 521.851C768.758 521.845 768.846 521.889 768.914 521.943L768.914 521.943ZM767.067 523.542L779.456 551.105C777.624 550.905 775.104 550.404 773.177 549.297C773.392 548.836 773.843 547.713 772.804 546.676C772.801 546.673 772.797 546.672 772.794 546.669C772.663 546.538 772.511 546.409 772.334 546.28L769.995 544.611C769.677 544.38 769.43 544.12 769.259 543.839C768.896 543.238 768.89 542.541 769.239 541.774C769.544 541.104 769.864 540.438 770.184 539.773L770.485 539.148C771.089 537.88 770.83 536.863 769.681 536.041L768.834 535.437C768.337 535.083 767.841 534.729 767.346 534.369C766.752 533.938 766.416 533.419 766.347 532.838C766.301 532.423 766.387 531.972 766.607 531.498C766.824 531.025 767.05 530.556 767.274 530.087L767.837 528.903C768.444 527.613 768.185 526.626 767.031 525.804L765.903 524.998C766.228 524.532 766.648 524.022 767.068 523.543L767.067 523.542Z" fill="#FFA03F" fill-opacity="0.38"/>
<path d="M1088.9 388.859C1088.92 388.784 1090.08 384.734 1095.71 379.085L1099.2 378.86C1099.41 378.846 1099.61 378.729 1099.73 378.545C1099.85 378.361 1099.88 378.131 1099.8 377.925L1099.08 375.992C1100.09 375.142 1101.2 374.269 1102.41 373.38C1102.51 373.424 1102.62 373.454 1102.74 373.446L1106.26 373.219C1106.48 373.205 1106.68 373.088 1106.8 372.904C1106.92 372.72 1106.94 372.49 1106.86 372.284L1106.28 370.729C1110.49 368.031 1115.69 365.246 1122.1 362.53C1122.13 362.543 1122.15 362.556 1122.17 362.569C1122.57 362.871 1123.08 363.052 1123.63 363.092C1124.08 363.151 1124.58 363.122 1125.11 362.924C1126.9 362.257 1127.11 361.444 1127.21 360.453C1127.22 360.341 1127.23 360.231 1127.24 360.122L1129.92 359.122C1130.28 358.988 1130.46 358.589 1130.33 358.229C1130.19 357.871 1129.79 357.688 1129.43 357.822L1126.75 358.823C1126.68 358.756 1126.6 358.688 1126.53 358.621C1125.88 358.026 1125.29 357.632 1123.9 358.024C1123.68 358.058 1123.46 358.108 1123.25 358.189C1122.21 358.575 1121.51 359.409 1121.32 360.312C1114.68 362.458 1108.91 363.756 1103.94 364.469L1103.44 363.123C1103.37 362.918 1103.2 362.761 1102.98 362.7C1102.77 362.639 1102.55 362.681 1102.37 362.815L1099.56 364.953C1099.55 364.96 1099.55 364.97 1099.54 364.978C1097.94 365.113 1096.45 365.186 1095.05 365.207L1094.36 363.361C1094.29 363.156 1094.12 362.998 1093.9 362.937C1093.69 362.876 1093.47 362.919 1093.29 363.052L1090.6 365.097C1082.59 364.549 1078.99 362.293 1078.92 362.251C1078.74 362.128 1078.51 362.101 1078.3 362.179L1076.25 362.942C1075.89 363.076 1075.71 363.476 1075.84 363.835L1078.06 369.766C1078.19 370.125 1078.59 370.307 1078.95 370.173C1081.74 369.134 1084.06 369.085 1085.86 370.029C1088.25 371.283 1088.94 373.924 1088.95 373.95C1088.97 374.047 1089.02 374.135 1089.09 374.209C1089.71 376.159 1090.2 380.453 1083.73 382.868C1083.37 383.002 1083.19 383.402 1083.32 383.761L1085.53 389.692C1085.67 390.051 1086.07 390.233 1086.43 390.099L1088.47 389.336C1088.69 389.255 1088.85 389.077 1088.9 388.859L1088.9 388.859ZM1123.91 361.722C1123.91 361.722 1123.9 361.722 1123.9 361.722C1123.87 361.722 1123.84 361.72 1123.81 361.719C1123.67 361.702 1123.54 361.669 1123.42 361.628C1123.23 361.565 1123.06 361.485 1122.92 361.401C1122.82 361.311 1122.74 361.205 1122.69 361.081C1122.67 361.024 1122.66 360.964 1122.65 360.905C1122.7 360.736 1122.78 360.539 1122.89 360.34C1123.03 360.102 1123.22 359.868 1123.48 359.69C1123.58 359.618 1123.7 359.554 1123.83 359.505C1123.96 359.458 1124.07 359.421 1124.17 359.388C1124.8 359.305 1125.39 359.545 1125.56 360.01C1125.78 360.582 1125.3 361.311 1124.52 361.602C1124.33 361.674 1124.13 361.713 1123.94 361.723C1123.93 361.721 1123.92 361.723 1123.91 361.722L1123.91 361.722ZM1118.11 362.762C1113.28 364.967 1109.21 367.194 1105.78 369.369L1104.45 365.831C1108.48 365.225 1113.02 364.25 1118.11 362.762L1118.11 362.762ZM1102.47 364.485L1105.24 371.896L1104.44 371.947L1103.16 372.029L1100.82 365.746L1102.18 364.705L1102.47 364.485ZM1099.58 366.416L1101.71 372.116C1100.57 372.947 1099.52 373.763 1098.55 374.563L1095.59 366.64C1096.85 366.607 1098.17 366.538 1099.58 366.416L1099.58 366.416ZM1093.39 364.723L1098.17 377.537L1097.26 377.595L1096.1 377.67L1091.73 365.983L1092.77 365.196L1093.39 364.723ZM1086.59 388.555L1084.86 383.911C1092.23 380.825 1090.92 375.216 1090.33 373.532C1090.3 373.471 1090.27 373.403 1090.22 373.348C1089.96 372.536 1089 370.117 1086.53 368.808C1084.51 367.743 1082.02 367.688 1079.12 368.641L1077.39 363.997L1078.47 363.594C1079.55 364.209 1083.32 366.053 1090.46 366.541L1094.74 377.998C1089.66 383.073 1088.06 386.966 1087.67 388.155L1086.59 388.556L1086.59 388.555Z" fill="#A4C6D2" fill-opacity="0.56"/>
<path d="M805.045 432.303L797.538 443.121C796.237 444.995 793.654 445.462 791.78 444.161C790.286 443.124 789.661 441.251 790.184 439.552C787.746 437.587 787.204 434.032 789.016 431.421C790.209 429.703 792.172 428.739 794.27 428.841C794.619 428.858 794.888 429.155 794.872 429.504C794.855 429.853 794.558 430.122 794.208 430.106C792.551 430.025 790.998 430.786 790.057 432.143C788.56 434.301 789.097 437.274 791.255 438.772C791.506 438.946 791.649 439.307 791.523 439.585C790.954 440.845 791.367 442.332 792.503 443.12C793.803 444.023 795.596 443.699 796.498 442.398L804.005 431.581C804.783 430.46 804.504 428.916 803.383 428.139C803.102 427.944 802.793 427.811 802.461 427.746C802.119 427.677 801.895 427.344 801.964 427.001C802.032 426.657 802.366 426.435 802.709 426.504C803.212 426.604 803.681 426.804 804.106 427.099C805.799 428.274 806.22 430.609 805.045 432.303L805.045 432.303Z" fill="black" fill-opacity="0.27"/>
<path d="M805.825 420.486L800.058 428.797C799.112 430.16 797.234 430.5 795.871 429.554C794.751 428.776 794.303 427.352 794.748 426.087C792.858 424.617 792.436 421.953 793.79 420.002C794.63 418.791 795.988 418.086 797.457 418.087C798.261 416.381 800.362 415.882 801.853 416.888C802.78 416.093 804.121 416.013 805.147 416.724C806.371 417.574 806.675 419.262 805.825 420.486ZM794.31 420.363C793.106 422.098 793.538 424.488 795.273 425.692C795.398 425.779 795.484 425.968 795.421 426.107C794.95 427.15 795.291 428.38 796.232 429.033C797.308 429.779 798.791 429.511 799.537 428.436L805.304 420.124C805.955 419.186 805.722 417.894 804.784 417.243C803.94 416.657 802.813 416.773 802.106 417.519C801.991 417.64 801.803 417.652 801.675 417.546C801.626 417.506 801.577 417.466 801.525 417.43C800.302 416.581 798.545 417.015 797.958 418.523C797.908 418.651 797.783 418.731 797.647 418.724C796.315 418.66 795.067 419.272 794.31 420.363L794.31 420.363Z" fill="black" fill-opacity="0.27"/>
<path d="M846.622 419.767L838.343 431.697C836.929 433.735 834.121 434.243 832.083 432.829C830.447 431.693 829.77 429.634 830.361 427.776C827.67 425.637 827.064 421.733 829.051 418.869C830.269 417.114 832.225 416.078 834.349 416.045C835.57 413.62 838.569 412.894 840.76 414.279C842.145 413.166 844.1 413.077 845.601 414.118C847.439 415.394 847.897 417.929 846.621 419.767L846.622 419.767ZM830.091 419.59C828.419 422 829.02 425.32 831.429 426.991L831.479 427.022C831.734 427.195 831.829 427.527 831.702 427.808C831.061 429.226 831.526 430.9 832.805 431.787C834.269 432.803 836.286 432.438 837.302 430.974L845.581 419.044C846.459 417.778 846.144 416.034 844.879 415.157C843.739 414.366 842.22 414.522 841.266 415.529C841.038 415.77 840.662 415.794 840.406 415.584C840.339 415.529 840.272 415.475 840.199 415.425C838.736 414.41 836.718 414.774 835.702 416.238C835.563 416.438 835.443 416.665 835.348 416.912C835.247 417.167 834.998 417.328 834.727 417.315C832.875 417.226 831.142 418.075 830.091 419.59L830.091 419.59Z" fill="black" fill-opacity="0.27"/>
<path d="M824.352 461.587C824.207 461.797 824.025 461.923 823.813 461.962C823.599 462.001 823.384 461.945 823.173 461.797C820.919 460.222 817.87 445.031 815.709 432.565L815.527 431.536C815.239 429.961 814.844 427.804 815.713 426.551C816.06 426.051 816.576 425.737 817.246 425.616C817.917 425.494 818.512 425.609 819.012 425.958C820.263 426.828 820.648 428.986 820.928 430.562L821.117 431.583C823.457 444.026 825.917 459.333 824.353 461.588L824.352 461.587ZM816.233 426.914C815.514 427.949 815.881 429.957 816.149 431.422L816.332 432.458C820.568 456.887 822.781 460.751 823.535 461.279C823.582 461.312 823.648 461.349 823.699 461.339C823.751 461.33 823.799 461.273 823.831 461.227C824.355 460.472 825.079 456.084 820.494 431.701L820.304 430.673C820.043 429.207 819.684 427.198 818.65 426.478C818.287 426.226 817.864 426.148 817.358 426.239C816.852 426.331 816.483 426.552 816.232 426.914L816.233 426.914Z" fill="black" fill-opacity="0.27"/>
<path d="M821.725 460.819C821.696 460.859 821.658 460.894 821.611 460.918L816.235 463.733C816.146 463.779 816.04 463.781 815.95 463.737C815.859 463.693 815.795 463.608 815.777 463.509L815.434 461.61C815.418 461.522 815.437 461.439 815.494 461.361L819.727 455.839C819.834 455.7 820.033 455.674 820.171 455.78C820.31 455.887 820.339 456.089 820.23 456.224L816.081 461.635L816.323 462.972L821.318 460.358C821.473 460.277 821.664 460.336 821.745 460.492C821.802 460.599 821.79 460.725 821.725 460.819L821.725 460.819Z" fill="black" fill-opacity="0.27"/>
<path d="M817.632 445.091C817.603 445.133 817.563 445.168 817.515 445.193L799.92 454.079C799.831 454.124 799.726 454.125 799.636 454.079C799.546 454.035 799.483 453.951 799.466 453.853L798.748 449.881C798.727 449.765 798.773 449.646 798.867 449.574L808.683 442.003L808.22 439.128C808.193 438.958 808.306 438.796 808.477 438.766L810.837 438.339C810.996 438.311 811.151 438.406 811.197 438.561L811.535 439.713L812.128 439.287L811.748 435.618C811.731 435.453 811.843 435.303 812.006 435.274L814.136 434.889C814.283 434.863 814.43 434.943 814.486 435.082L815.275 437.03L815.698 436.623C815.824 436.501 816.023 436.505 816.145 436.631C816.267 436.757 816.264 436.957 816.137 437.079L815.377 437.811C815.301 437.884 815.194 437.915 815.091 437.892C814.988 437.87 814.903 437.799 814.863 437.702L813.995 435.558L812.408 435.845L812.776 439.405C812.788 439.518 812.738 439.628 812.646 439.695L811.541 440.489C811.458 440.549 811.35 440.565 811.253 440.531C811.156 440.497 811.081 440.419 811.053 440.321L810.668 439.013L808.894 439.333L809.338 442.087C809.357 442.202 809.311 442.318 809.219 442.388L799.406 449.957L800.014 453.322L817.23 444.627C817.386 444.548 817.577 444.611 817.656 444.768C817.71 444.874 817.697 444.998 817.633 445.09L817.632 445.091Z" fill="black" fill-opacity="0.27"/>
<path d="M831.833 460.834C831.824 460.847 831.814 460.86 831.803 460.872C831.734 460.945 831.633 460.98 831.534 460.968L825.512 460.213C825.338 460.191 825.215 460.033 825.237 459.86C825.259 459.685 825.416 459.563 825.59 459.584L831.184 460.286L830.942 458.948L825.163 455.332C825.015 455.24 824.97 455.044 825.063 454.896C825.151 454.751 825.35 454.703 825.499 454.796L831.397 458.487C831.473 458.534 831.525 458.611 831.541 458.698L831.884 460.598C831.9 460.681 831.881 460.765 831.833 460.834L831.833 460.834Z" fill="black" fill-opacity="0.27"/>
<path d="M843.731 446.082C843.722 446.094 843.712 446.106 843.702 446.118C843.634 446.191 843.536 446.227 843.436 446.217L823.844 444.05C823.67 444.03 823.545 443.874 823.564 443.7C823.583 443.526 823.74 443.401 823.913 443.42L843.084 445.54L842.477 442.175L830.636 438.519C830.525 438.485 830.441 438.393 830.418 438.279L829.871 435.543L828.096 435.864L828.195 437.223C828.203 437.325 828.16 437.424 828.08 437.49C828.001 437.556 827.895 437.578 827.796 437.551L826.483 437.193C826.374 437.164 826.289 437.078 826.26 436.968L825.359 433.504L823.772 433.791L823.708 436.103C823.704 436.209 823.649 436.305 823.561 436.361C823.473 436.417 823.362 436.426 823.265 436.384L822.298 435.965C822.137 435.895 822.064 435.709 822.133 435.549C822.201 435.386 822.389 435.314 822.549 435.384L823.088 435.618L823.146 433.517C823.149 433.368 823.258 433.241 823.406 433.214L825.536 432.829C825.699 432.8 825.857 432.901 825.899 433.061L826.827 436.631L827.531 436.822L827.445 435.625C827.434 435.464 827.545 435.319 827.705 435.291L830.065 434.864C830.235 434.834 830.398 434.945 830.432 435.114L831.004 437.969L842.848 441.626C842.961 441.661 843.045 441.756 843.066 441.873L843.783 445.845C843.797 445.929 843.778 446.013 843.731 446.082L843.731 446.082Z" fill="black" fill-opacity="0.27"/>
<path d="M820.271 233.027C820.097 232.66 820.072 232.24 820.201 231.855C820.329 231.47 820.601 231.15 820.96 230.961C821.725 230.577 822.306 229.907 822.577 229.095C822.847 228.284 822.785 227.399 822.404 226.633C822.23 226.266 822.205 225.847 822.333 225.462C822.462 225.077 822.734 224.756 823.093 224.567C823.857 224.183 824.439 223.513 824.709 222.702C824.98 221.89 824.918 221.005 824.536 220.239C824.362 219.873 824.338 219.453 824.466 219.068C824.594 218.683 824.866 218.362 825.226 218.173C825.99 217.79 826.571 217.119 826.842 216.308C827.113 215.496 827.05 214.611 826.669 213.846C826.495 213.479 826.47 213.059 826.599 212.674C826.727 212.289 826.999 211.968 827.358 211.779C828.122 211.396 828.704 210.725 828.974 209.914C829.245 209.103 829.183 208.217 828.802 207.452C828.628 207.085 828.603 206.665 828.731 206.28C828.86 205.895 829.132 205.574 829.491 205.385L828.738 203.878C827.986 204.275 827.418 204.946 827.149 205.752C826.88 206.558 826.932 207.437 827.294 208.205C827.476 208.571 827.506 208.994 827.377 209.381C827.247 209.768 826.97 210.089 826.605 210.272C825.854 210.669 825.285 211.34 825.016 212.146C824.747 212.952 824.799 213.83 825.162 214.599C825.344 214.965 825.373 215.387 825.244 215.775C825.115 216.162 824.837 216.483 824.472 216.666C823.721 217.063 823.152 217.734 822.884 218.54C822.615 219.346 822.667 220.224 823.029 220.993C823.211 221.359 823.241 221.781 823.111 222.169C822.982 222.556 822.705 222.876 822.34 223.059C821.588 223.457 821.02 224.128 820.751 224.934C820.482 225.74 820.534 226.618 820.896 227.387C821.078 227.752 821.108 228.175 820.979 228.562C820.849 228.95 820.572 229.27 820.207 229.453C819.456 229.851 818.887 230.522 818.618 231.328C818.349 232.134 818.401 233.012 818.764 233.781L820.271 233.027Z" fill="black" fill-opacity="0.15"/>
<path d="M833.425 189.824C833.608 190.189 833.637 190.612 833.508 190.999C833.379 191.387 833.101 191.707 832.736 191.89C831.985 192.287 831.416 192.958 831.147 193.765C830.879 194.571 830.931 195.449 831.293 196.217C831.475 196.583 831.504 197.006 831.375 197.393C831.246 197.781 830.969 198.101 830.603 198.284L831.357 199.791C832.121 199.408 832.703 198.737 832.973 197.926C833.244 197.115 833.182 196.23 832.8 195.464C832.626 195.097 832.601 194.677 832.73 194.292C832.858 193.907 833.13 193.586 833.489 193.397C834.254 193.014 834.835 192.343 835.105 191.532C835.376 190.721 835.314 189.836 834.933 189.07C834.759 188.703 834.734 188.283 834.862 187.898C834.991 187.513 835.263 187.193 835.622 187.004L834.869 185.496C834.118 185.894 833.549 186.565 833.28 187.371C833.011 188.177 833.063 189.055 833.425 189.824Z" fill="black" fill-opacity="0.15"/>
<path d="M818.856 192.684C816.594 189.791 815.94 185.955 817.117 182.476L817.266 182.029L815.667 181.495L815.518 181.943C814.39 185.284 814.715 188.946 816.415 192.036C813 190.546 809.073 190.818 805.897 192.766L806.783 194.2C808.327 193.252 810.106 192.755 811.918 192.766C813.73 192.778 815.502 193.297 817.034 194.264L817.099 194.305L817.099 194.306C815.094 194.452 813.177 195.189 811.591 196.426C810.005 197.662 808.821 199.34 808.19 201.249L807.937 202.009L809.535 202.542L809.789 201.783C810.333 200.138 811.367 198.699 812.754 197.66C814.14 196.621 815.812 196.031 817.543 195.971C816.042 197.313 815.024 199.111 814.644 201.089C814.264 203.066 814.545 205.114 815.442 206.916L816.949 206.163C816.175 204.609 815.963 202.835 816.349 201.143C816.736 199.45 817.697 197.944 819.068 196.88C818.397 198.481 818.424 200.291 819.143 201.872C819.862 203.453 821.208 204.662 822.856 205.209L823.39 203.61C822.117 203.189 821.094 202.227 820.596 200.982C820.098 199.737 820.174 198.336 820.804 197.153C824.427 200.159 828.54 202.519 832.964 204.129L833.537 202.544C829.085 200.924 824.964 198.512 821.371 195.426C821.378 195.363 821.388 195.303 821.397 195.242L821.46 195.205C821.445 195.172 821.432 195.139 821.416 195.106L821.416 195.106C821.699 193.376 822.547 191.789 823.829 190.593C825.111 189.398 826.753 188.661 828.498 188.498L828.802 188.468L828.638 186.792L828.335 186.82C824.92 187.142 821.935 189.261 820.505 192.379C819.814 188.876 820.818 185.252 823.215 182.604L821.97 181.468L821.97 181.468C819.222 184.507 818.068 188.664 818.856 192.683L818.856 192.684Z" fill="black" fill-opacity="0.15"/>
<path d="M813.845 214.427L815.469 213.975L815.469 213.975C815.069 212.542 814.059 211.358 812.707 210.737C811.355 210.117 809.798 210.124 808.451 210.756C807.104 211.388 806.104 212.582 805.718 214.018C805.331 215.455 805.597 216.989 806.444 218.211L807.83 217.253C807.265 216.437 807.088 215.415 807.346 214.457C807.604 213.5 808.27 212.704 809.168 212.283C810.065 211.861 811.103 211.856 812.004 212.27C812.906 212.683 813.58 213.472 813.846 214.428L813.845 214.427Z" fill="black" fill-opacity="0.15"/>
<path d="M836.971 240.114L839.103 233.72L840.702 234.253L838.569 240.647L836.971 240.114Z" fill="black" fill-opacity="0.15"/>
<path d="M852.966 192.16L852.432 193.759L849.203 192.682C849.064 192.635 848.913 192.625 848.769 192.654L842.335 193.943L840.976 193.49C840.341 193.278 839.648 193.327 839.049 193.626C838.45 193.924 837.994 194.448 837.781 195.082L832.949 209.457L830.548 216.656C830.336 217.292 830.385 217.986 830.685 218.586C830.985 219.185 831.51 219.641 832.146 219.853L833.482 220.299L836.831 225.142C834.468 224.517 832.018 224.286 829.581 224.459L827.554 224.607L827.554 224.607C827.215 224.632 826.924 224.858 826.816 225.181C826.709 225.503 826.805 225.859 827.062 226.083L828.594 227.418C833.076 231.302 838.916 233.25 844.832 232.834L846.859 232.686L846.859 232.686C847.198 232.661 847.489 232.435 847.597 232.112C847.704 231.79 847.607 231.434 847.351 231.21L845.819 229.875C845.662 229.734 845.494 229.606 845.332 229.472L845.332 229.472C845.641 229.426 845.899 229.211 845.999 228.915L847.633 224.016C848.64 224.1 849.631 223.726 850.331 222.998C851.031 222.27 851.366 221.265 851.243 220.263C851.12 219.261 850.552 218.367 849.697 217.829L853.231 207.232C854.238 207.316 855.229 206.942 855.929 206.214C856.629 205.486 856.964 204.482 856.841 203.479C856.718 202.477 856.15 201.583 855.295 201.046L856.929 196.147C857 195.935 856.983 195.703 856.883 195.503C856.783 195.304 856.608 195.152 856.396 195.081L854.031 194.292L854.564 192.693L852.966 192.16ZM842.268 213.46L837.477 211.862L839.343 206.267L844.134 207.866L842.268 213.46ZM845.733 208.399L850.532 210L848.666 215.594L843.867 213.993L845.733 208.399ZM838.536 224.649L834.944 219.455L835.344 218.256L838.936 223.45L838.536 224.649ZM836.011 216.258L836.944 213.46L841.735 215.059L839.602 221.452L836.011 216.258ZM839.876 204.668L841.578 199.566L847.169 198.767L844.668 206.267L839.876 204.668ZM847.765 196.981L842.174 197.78L842.92 195.543L848.625 194.403L847.765 196.981ZM840.443 195.088L841.21 195.343L836.411 209.729L834.813 209.196L839.377 195.62C839.448 195.408 839.6 195.233 839.8 195.133C840 195.033 840.231 195.017 840.443 195.088L840.443 195.088ZM832.144 217.187L834.276 210.793L835.879 211.328L833.479 218.521L832.676 218.253C832.235 218.106 831.996 217.629 832.144 217.187ZM844.709 231.144L844.717 231.151L844.708 231.148C839.239 231.532 833.842 229.731 829.699 226.141L829.69 226.139L829.7 226.138C835.169 225.753 840.567 227.554 844.709 231.144ZM839.868 225.981L840.401 224.382L845.2 225.983L844.667 227.582L839.868 225.981ZM849.496 221.199C849.355 221.623 849.051 221.973 848.651 222.173C848.252 222.373 847.789 222.406 847.365 222.264C846.941 222.123 846.59 221.819 846.391 221.419C846.191 221.019 846.158 220.557 846.299 220.133C846.441 219.709 846.745 219.358 847.145 219.158C847.544 218.959 848.007 218.926 848.431 219.067C848.855 219.209 849.206 219.513 849.405 219.913C849.605 220.312 849.638 220.775 849.496 221.199ZM844.701 219.6C844.47 220.301 844.476 221.059 844.718 221.757C844.96 222.456 845.426 223.054 846.041 223.462L845.734 224.385L840.934 222.784L843.334 215.591L848.133 217.192L848.092 217.315C847.355 217.271 846.623 217.471 846.01 217.884C845.398 218.297 844.938 218.9 844.701 219.599L844.701 219.6ZM855.095 204.415C854.953 204.839 854.649 205.19 854.249 205.389C853.85 205.589 853.387 205.622 852.963 205.481C852.539 205.339 852.189 205.035 851.989 204.635C851.789 204.236 851.756 203.773 851.898 203.349C852.039 202.925 852.343 202.574 852.743 202.375C853.142 202.175 853.605 202.142 854.029 202.284C854.453 202.425 854.804 202.729 855.003 203.129C855.203 203.528 855.236 203.991 855.095 204.415ZM853.69 200.531C852.699 200.469 851.731 200.849 851.048 201.569C850.365 202.29 850.036 203.276 850.15 204.262C850.264 205.248 850.81 206.133 851.639 206.679L851.065 208.4L846.266 206.799L850.265 194.811L855.064 196.412L853.69 200.531Z" fill="black" fill-opacity="0.15"/>
<path d="M809.93 229.318C810.671 229.565 811.481 229.508 812.181 229.158C812.88 228.808 813.412 228.195 813.66 227.453L816.192 219.861C816.573 218.719 816.316 217.46 815.517 216.559C814.719 215.658 813.5 215.252 812.321 215.493C811.141 215.734 810.18 216.586 809.799 217.728C809.715 217.978 809.663 218.238 809.642 218.5C808.686 218.787 807.863 219.406 807.321 220.246C806.78 221.085 806.555 222.09 806.688 223.08C806.82 224.07 807.302 224.98 808.045 225.647C807.817 226.384 807.886 227.181 808.239 227.867C808.591 228.553 809.198 229.074 809.929 229.318L809.93 229.318ZM809.664 226.121C809.7 226.021 809.747 225.928 809.806 225.84C809.928 225.65 809.969 225.419 809.919 225.198C809.869 224.978 809.732 224.786 809.539 224.668C808.936 224.299 808.517 223.694 808.382 223C808.248 222.306 808.411 221.588 808.832 221.021C809.254 220.453 809.894 220.089 810.597 220.018C810.827 219.993 811.036 219.876 811.176 219.693C811.317 219.511 811.376 219.278 811.341 219.05C811.261 218.54 811.42 218.022 811.772 217.645C812.124 217.267 812.63 217.072 813.144 217.116C813.658 217.159 814.124 217.437 814.407 217.869C814.69 218.3 814.759 218.838 814.594 219.327L812.061 226.92C811.841 227.582 811.125 227.94 810.463 227.719C809.801 227.498 809.443 226.783 809.664 226.12L809.664 226.121Z" fill="black" fill-opacity="0.15"/>
<path d="M292.091 18.8261L279.866 22.0008C279.226 22.1666 278.563 21.9772 278.089 21.5507C273.066 17.0019 270.531 16.3148 269.418 17.4284C268.304 18.5419 269.039 21.0771 273.54 26.0997C273.967 26.5736 274.156 27.2369 273.99 27.8766L270.816 40.1018C270.65 40.6941 270.839 41.3574 271.266 41.7838L272 42.5182C272.498 43.0158 273.303 42.8737 273.635 42.2576L278.681 32.2358C278.847 31.9278 279.273 31.8329 279.534 32.0935C281.808 34.1785 284.107 36.0975 286.168 37.6375L285.362 41.523C285.315 41.8074 285.386 42.1153 285.599 42.3284L286.807 43.5367C286.973 43.7026 287.21 43.6552 287.329 43.4418L289.745 38.8455C289.982 38.3717 290.361 37.9926 290.835 37.7556L295.431 35.3391C295.621 35.2444 295.668 34.96 295.526 34.8179L294.318 33.6096C294.105 33.3965 293.82 33.3016 293.512 33.3727L289.627 34.1783C288.087 32.1172 286.168 29.819 284.083 27.5446C283.822 27.284 283.917 26.8576 284.225 26.6917L294.247 21.6453C294.863 21.3136 295.005 20.5081 294.508 20.0107L293.797 19.2997C293.347 18.8497 292.707 18.6838 292.091 18.8259L292.091 18.8261Z" fill="#FFE0C0"/>
<path d="M290.707 39.9829C306.18 51.0447 320.177 119.835 237.774 119.188C171.851 118.67 173.297 73.4937 174.88 61.6871C182.887 49.3761 203.657 28.436 228.661 45.6584C244.835 56.7982 240.061 127.041 198.353 140.247C147.98 156.196 118.155 113.163 114.775 98.073" stroke="#FFA03F" stroke-opacity="0.33" stroke-width="1.5" stroke-dasharray="6 6"/>
</svg>
