<svg width="20" height="16" viewBox="0 0 20 16" fill="none" xmlns="http://www.w3.org/2000/svg">
<path d="M11.2641 -6.83975e-07C11.3005 -6.80792e-07 11.3733 -2.58178e-06 11.4097 0.0364097C11.7009 0.218362 18.2513 4.36697 18.9794 8.95259C19.4524 12.0459 18.3607 14.6299 16.0679 15.6853C14.9398 16.1948 13.4841 16.0857 12.2832 15.3578C10.9003 14.5571 10.027 13.1015 9.88131 11.4273C9.59011 7.75156 13.0838 6.84198 14.0663 6.65984C13.9935 6.07758 13.666 4.51272 12.829 3.12991C12.3558 2.32928 11.0822 0.400526 11.0458 0.400526C10.973 0.2914 11.0094 0.182163 11.0822 0.0730393C11.155 0.0365155 11.2278 0.00010231 11.2641 0.000102313L11.2641 -6.83975e-07ZM14.5759 15.5031C15.049 15.5031 15.4856 15.4303 15.8859 15.2483C17.9604 14.3021 18.9429 11.9002 18.5062 9.02512C17.9968 5.74968 14.1391 2.58375 12.2104 1.20066C12.6107 1.78292 13.0474 2.47443 13.3022 2.87475C14.3941 4.69439 14.6123 6.76868 14.6487 6.87791C14.6487 7.02345 14.5759 7.13269 14.4303 7.16911C14.2484 7.20552 10.1361 7.67854 10.4272 11.427C10.5728 13.5013 11.8102 14.5203 12.538 14.957C13.1931 15.3209 13.8845 15.5029 14.576 15.5029L14.5759 15.5031Z" fill="#FF6B00"/>
<path d="M1.40029 4.31882e-05C1.43671 4.31914e-05 1.50942 4.22441e-05 1.54583 0.0364535C1.80061 0.218406 8.38752 4.36702 9.07892 8.95264C9.55207 12.0459 8.46023 14.63 6.16748 15.6851C5.03936 16.1945 3.58364 16.0854 2.38278 15.3576C1.03617 14.557 0.162825 13.1377 0.017281 11.4274C-0.273919 7.7516 3.21981 6.84203 4.2023 6.65988C4.12947 6.07762 3.80198 4.51276 2.96495 3.12995C2.49181 2.32932 1.21814 0.40057 1.18174 0.40057C1.10892 0.291444 1.14533 0.182206 1.21816 0.0730832C1.25446 0.0365603 1.32728 0.000146179 1.40011 0.000146185L1.40029 4.31882e-05ZM4.67545 15.5031C5.1486 15.5031 5.5852 15.4303 5.98551 15.2484C8.05992 14.3022 9.0425 11.9003 8.60578 9.02516C8.09635 5.74972 4.23862 2.58379 2.30995 1.2007C2.71027 1.78296 3.14699 2.47448 3.40179 2.87479C4.49362 4.69443 4.71185 6.76872 4.74828 6.87795C4.74828 7.02349 4.67545 7.13273 4.52992 7.16915C4.34796 7.20557 0.235669 7.67858 0.526755 11.4271C0.708707 13.5015 1.94607 14.5567 2.67388 14.957C3.29268 15.3208 4.0206 15.5029 4.67557 15.5029L4.67545 15.5031Z" fill="#FF6B00"/>
</svg>
