<svg width="18" height="15" viewBox="0 0 18 15" fill="none" xmlns="http://www.w3.org/2000/svg">
<path d="M16.3453 0.903143H14.8406V0.301292C14.8406 0.135112 14.7059 0.000366211 14.5397 0.000366211C14.3735 0.000366211 14.2388 0.135112 14.2388 0.301292V0.903143H11.2295V0.301292C11.2295 0.135112 11.0948 0.000366211 10.9286 0.000366211C10.7624 0.000366211 10.6277 0.135112 10.6277 0.301292V0.903143H7.61842V0.301292C7.61842 0.135112 7.48367 0.000366211 7.31749 0.000366211C7.15131 0.000366211 7.01657 0.135112 7.01657 0.301292V0.903143H4.00731V0.301292C4.00731 0.135112 3.87257 0.000366211 3.70639 0.000366211C3.54021 0.000366211 3.40546 0.135112 3.40546 0.301292V0.903143H1.90083C1.66144 0.903411 1.43197 0.998658 1.2627 1.1678C1.09356 1.33707 0.998315 1.56653 0.998047 1.80593V13.542C0.998316 13.7814 1.09356 14.0109 1.2627 14.1802C1.43197 14.3493 1.66143 14.4445 1.90083 14.4448H16.3453C16.5847 14.4445 16.8141 14.3493 16.9834 14.1802C17.1525 14.0109 17.2478 13.7814 17.248 13.542V1.80593C17.2478 1.56653 17.1525 1.33707 16.9834 1.1678C16.8141 0.998658 16.5847 0.903411 16.3453 0.903143ZM1.90083 1.50499H3.40546V2.10684C3.40546 2.27302 3.54021 2.40777 3.70639 2.40777C3.87257 2.40777 4.00731 2.27302 4.00731 2.10684V1.50499H7.01657V2.10684C7.01657 2.27302 7.15131 2.40777 7.31749 2.40777C7.48367 2.40777 7.61842 2.27302 7.61842 2.10684V1.50499H10.6277V2.10684C10.6277 2.27302 10.7624 2.40777 10.9286 2.40777C11.0948 2.40777 11.2295 2.27302 11.2295 2.10684V1.50499H14.2388V2.10684C14.2388 2.27302 14.3735 2.40777 14.5397 2.40777C14.7059 2.40777 14.8406 2.27302 14.8406 2.10684V1.50499H16.3453C16.5114 1.50513 16.6461 1.63974 16.6462 1.80592V3.61147H1.59991V1.80592C1.60004 1.63974 1.73465 1.50513 1.90083 1.50499ZM16.3453 13.8429H1.90083C1.73465 13.8428 1.60004 13.7082 1.59991 13.542V4.21332H16.6462V13.542C16.6461 13.7082 16.5114 13.8428 16.3453 13.8429Z" fill="#FFA03F"/>
<path d="M9.71654 10.2246H8.52763C8.36803 10.2245 8.21502 10.1611 8.10217 10.0482C7.98933 9.9354 7.92592 9.78239 7.92578 9.62279V8.43388C7.92592 8.27428 7.98933 8.12127 8.10217 8.00842C8.21502 7.89558 8.36804 7.83217 8.52763 7.83203H9.71668H9.71655C9.87614 7.83217 10.0292 7.89558 10.142 8.00842C10.2548 8.12127 10.3183 8.27428 10.3184 8.43388V9.62293V9.6228C10.3183 9.78239 10.2548 9.93541 10.142 10.0483C10.0292 10.1611 9.87614 10.2245 9.71655 10.2246L9.71654 10.2246ZM8.52749 8.43374V9.62279H9.71682L9.71655 8.43374H8.52749Z" fill="#FFA03F"/>
<path d="M6.85367 10.2246H5.66434C5.50488 10.2245 5.35187 10.1611 5.23902 10.0482C5.12618 9.9354 5.06277 9.78239 5.0625 9.62279V8.43388C5.06277 8.27428 5.12618 8.12127 5.23902 8.00842C5.35187 7.89558 5.50489 7.83217 5.66434 7.83203H6.85367C7.01327 7.83217 7.16628 7.89558 7.27899 8.00842C7.39183 8.12127 7.45538 8.27428 7.45551 8.43388V9.62293V9.6228C7.45538 9.78239 7.39183 9.93541 7.27899 10.0483C7.16628 10.1611 7.01326 10.2245 6.85367 10.2246V10.2246ZM5.66434 8.43374V9.62279H6.85394L6.85368 8.43374H5.66434Z" fill="#FFA03F"/>
<path d="M3.99402 10.2246H2.80497C2.64537 10.2245 2.49249 10.1611 2.37965 10.0482C2.26681 9.9354 2.20326 9.78239 2.20312 9.62279V8.43388C2.20326 8.27428 2.2668 8.12127 2.37965 8.00842C2.49249 7.89558 2.64538 7.83217 2.80497 7.83203H3.99402C4.15348 7.83217 4.3065 7.89558 4.41934 8.00842C4.53218 8.12127 4.5956 8.27428 4.59586 8.43388V9.62293V9.6228C4.5956 9.78239 4.53219 9.93541 4.41934 10.0483C4.30649 10.1611 4.15348 10.2245 3.99402 10.2246V10.2246ZM2.80497 8.43388V9.62293H3.9943L3.99403 8.43388H2.80497Z" fill="#FFA03F"/>
<path d="M12.5802 10.2246H11.3909C11.2313 10.2245 11.0783 10.1611 10.9656 10.0482C10.8527 9.9354 10.7892 9.78239 10.7891 9.62279V8.43388C10.7892 8.27428 10.8527 8.12127 10.9656 8.00842C11.0783 7.89558 11.2313 7.83217 11.3909 7.83203H12.5802C12.7397 7.83217 12.8927 7.89558 13.0056 8.00842C13.1184 8.12127 13.1818 8.27428 13.1821 8.43388V9.62293V9.6228C13.1818 9.78239 13.1184 9.93541 13.0056 10.0483C12.8927 10.1611 12.7397 10.2245 12.5802 10.2246V10.2246ZM11.3909 8.43374V9.62279H12.5805L12.5802 8.43374H11.3909Z" fill="#FFA03F"/>
<path d="M6.85367 13.2339H5.66434C5.50488 13.2338 5.35187 13.1704 5.23902 13.0575C5.12618 12.9447 5.06277 12.7917 5.0625 12.6321V11.4432C5.06277 11.2836 5.12618 11.1305 5.23902 11.0177C5.35187 10.9049 5.50489 10.8414 5.66434 10.8413H6.85367C7.01327 10.8414 7.16628 10.9049 7.27899 11.0177C7.39183 11.1305 7.45538 11.2836 7.45551 11.4432V12.6322V12.6321C7.45538 12.7917 7.39183 12.9447 7.27899 13.0575C7.16628 13.1704 7.01326 13.2338 6.85367 13.2339V13.2339ZM5.66434 11.443V12.6321H6.85394L6.85368 11.443H5.66434Z" fill="#FFA03F"/>
<path d="M3.99402 13.2339H2.80497C2.64537 13.2338 2.49249 13.1704 2.37965 13.0575C2.26681 12.9447 2.20326 12.7917 2.20312 12.6321V11.4432C2.20326 11.2836 2.2668 11.1305 2.37965 11.0177C2.49249 10.9049 2.64538 10.8414 2.80497 10.8413H3.99402C4.15348 10.8414 4.3065 10.9049 4.41934 11.0177C4.53218 11.1305 4.5956 11.2836 4.59586 11.4432V12.6322V12.6321C4.5956 12.7917 4.53219 12.9447 4.41934 13.0575C4.30649 13.1704 4.15348 13.2338 3.99402 13.2339V13.2339ZM2.80497 11.4432V12.6322H3.9943L3.99403 11.4432H2.80497Z" fill="#FFA03F"/>
<path d="M15.4432 10.2246H14.2542C14.0947 10.2245 13.9417 10.1611 13.8289 10.0482C13.716 9.9354 13.6526 9.78239 13.6523 9.62279V8.43388C13.6526 8.27428 13.716 8.12127 13.8289 8.00842C13.9417 7.89558 14.0947 7.83217 14.2542 7.83203H15.4432C15.6028 7.83217 15.7557 7.89558 15.8686 8.00842C15.9814 8.12127 16.0449 8.27428 16.0451 8.43388V9.62293V9.6228C16.0449 9.78239 15.9814 9.93541 15.8686 10.0483C15.7557 10.1611 15.6028 10.2245 15.4432 10.2246V10.2246ZM14.2542 8.43374V9.62279H15.4435L15.4432 8.43388L14.2542 8.43374Z" fill="#FFA03F"/>
<path d="M9.71654 7.21536H8.52763C8.36803 7.21523 8.21502 7.15182 8.10217 7.03897C7.98933 6.92613 7.92592 6.77311 7.92578 6.61352V5.4246C7.92592 5.265 7.98933 5.11199 8.10217 4.99914C8.21502 4.8863 8.36804 4.82289 8.52763 4.82275H9.71668H9.71655C9.87614 4.82289 10.0292 4.8863 10.142 4.99914C10.2548 5.11199 10.3183 5.26501 10.3184 5.4246V6.61365V6.61352C10.3183 6.77312 10.2548 6.92613 10.142 7.03898C10.0292 7.15182 9.87614 7.21523 9.71655 7.21537L9.71654 7.21536ZM8.52749 5.42446V6.61351H9.71682L9.71655 5.42446H8.52749Z" fill="#FFA03F"/>
<path d="M12.5802 7.21536H11.3909C11.2313 7.21523 11.0783 7.15182 10.9656 7.03897C10.8527 6.92613 10.7892 6.77311 10.7891 6.61352V5.4246C10.7892 5.265 10.8527 5.11199 10.9656 4.99914C11.0783 4.8863 11.2313 4.82289 11.3909 4.82275H12.5802C12.7397 4.82289 12.8927 4.8863 13.0056 4.99914C13.1184 5.11199 13.1818 5.26501 13.1821 5.4246V6.61365V6.61352C13.1818 6.77312 13.1184 6.92613 13.0056 7.03898C12.8927 7.15182 12.7397 7.21523 12.5802 7.21537V7.21536ZM11.3909 5.42446V6.61351H12.5805L12.5802 5.42446H11.3909Z" fill="#FFA03F"/>
<path d="M15.4432 7.21536H14.2542C14.0947 7.21523 13.9417 7.15182 13.8289 7.03897C13.716 6.92613 13.6526 6.77311 13.6523 6.61352V5.4246C13.6526 5.265 13.716 5.11199 13.8289 4.99914C13.9417 4.8863 14.0947 4.82289 14.2542 4.82275H15.4432C15.6028 4.82289 15.7557 4.8863 15.8686 4.99914C15.9814 5.11199 16.0449 5.26501 16.0451 5.4246V6.61365V6.61352C16.0449 6.77312 15.9814 6.92613 15.8686 7.03898C15.7557 7.15182 15.6028 7.21523 15.4432 7.21537V7.21536ZM14.2542 5.42446V6.61351H15.4435L15.4432 5.4246L14.2542 5.42446Z" fill="#FFA03F"/>
<path d="M7.21062 4.94248C7.10785 4.86496 6.98251 4.82291 6.85367 4.82251H5.66434C5.50488 4.82264 5.35187 4.88606 5.23902 4.9989C5.12618 5.11175 5.06277 5.26476 5.0625 5.42436V6.61341V6.61327C5.06277 6.77287 5.12618 6.92588 5.23902 7.03873C5.35187 7.15144 5.50489 7.21499 5.66434 7.21512H6.85367C7.01327 7.21499 7.16628 7.15144 7.27899 7.03873C7.39184 6.92588 7.45538 6.77287 7.45552 6.61327V5.56244L7.62949 5.36496V5.36509C7.73387 5.24754 7.7289 5.069 7.6182 4.95738C7.50751 4.84574 7.32924 4.8393 7.2106 4.94247L7.21062 4.94248ZM6.85395 6.61328H5.66434V5.42437H6.77523L6.43144 5.81451L6.25008 5.60883V5.60869C6.13979 5.48591 5.95117 5.47489 5.82731 5.58411C5.70344 5.6932 5.69068 5.88181 5.79869 6.00661L6.20575 6.46862C6.26285 6.53338 6.34507 6.57045 6.43145 6.57045C6.51769 6.57045 6.59991 6.53338 6.65714 6.46862L6.85395 6.24535L6.85395 6.61328Z" fill="#FFA03F"/>
<path d="M10.083 10.9688C9.9785 10.8866 9.84953 10.8416 9.71654 10.8411H8.52763C8.36803 10.8412 8.21502 10.9046 8.10217 11.0175C7.98933 11.1303 7.92592 11.2833 7.92578 11.4429V12.632V12.6318C7.92592 12.7914 7.98933 12.9444 8.10217 13.0573C8.21502 13.1701 8.36803 13.2335 8.52763 13.2337H9.71668H9.71654C9.87614 13.2335 10.0292 13.1701 10.142 13.0573C10.2548 12.9444 10.3183 12.7914 10.3184 12.6318V11.6035L10.5121 11.3837C10.618 11.264 10.6107 11.0821 10.4959 10.9711C10.381 10.86 10.1991 10.8591 10.083 10.9688L10.083 10.9688ZM9.71692 12.6318H8.52759V11.4429H9.65794L9.31429 11.833L9.13293 11.6274V11.6272C9.02264 11.5044 8.83402 11.4934 8.71016 11.6026C8.58629 11.7117 8.57353 11.9003 8.68154 12.0251L9.0886 12.4872C9.1457 12.5519 9.22791 12.589 9.31429 12.589C9.40054 12.589 9.48276 12.5519 9.53999 12.4872L9.71678 12.2865L9.71692 12.6318Z" fill="#FFA03F"/>
</svg>
