<svg width="51" height="51" viewBox="0 0 51 51" fill="none" xmlns="http://www.w3.org/2000/svg">
<path d="M50.9098 48.2041C50.9098 49.9853 45.5502 50.905 40.1905 50.905C34.831 50.905 29.4712 49.9856 29.4712 48.2041C29.4712 43.4539 34.2705 39.6033 40.1905 39.6033C46.1106 39.6036 50.9098 43.4543 50.9098 48.2041ZM46.0822 33.7121C46.0818 32.1496 45.4611 30.651 44.3563 29.5462C43.2514 28.4418 41.7529 27.8211 40.1904 27.8211C38.6279 27.8211 37.1297 28.4418 36.0249 29.5466C34.9202 30.6514 34.2994 32.15 34.2994 33.7125C34.2994 35.275 34.9201 36.7732 36.0249 37.8784C37.1298 38.9832 38.6283 39.6039 40.1908 39.6039C41.7533 39.6039 43.2515 38.9828 44.3567 37.878C45.4615 36.7731 46.0822 35.2746 46.0822 33.7121ZM0 47.6395C0 49.4206 5.35953 50.3399 10.7193 50.3399C16.0788 50.3399 21.4385 49.4205 21.4385 47.6391C21.4385 42.8888 16.6393 39.0382 10.7193 39.0382C4.79913 39.0386 0 42.8892 0 47.6395ZM16.6112 33.1464C16.6108 31.5839 15.9902 30.0857 14.8854 28.981C13.7805 27.8762 12.282 27.2555 10.7195 27.2555C9.15694 27.2555 7.65874 27.8761 6.55399 28.981C5.44913 30.0861 4.82852 31.5843 4.82852 33.1468C4.82852 34.7094 5.44918 36.208 6.55399 37.3127C7.65879 38.4175 9.15734 39.0382 10.7199 39.0382C12.2824 39.0382 13.781 38.4175 14.8858 37.3123C15.9906 36.2075 16.6112 34.709 16.6112 33.1464ZM43.2235 13.7857C44.1019 10.8998 43.7183 7.77636 42.1677 5.18876C40.617 2.60076 38.044 0.790043 35.0843 0.203675C32.125 -0.382663 29.0556 0.310211 26.6352 2.11106C29.3981 3.80067 31.3327 6.56301 31.9762 9.73657C32.6194 12.9101 31.9131 16.2079 30.0262 18.8398C29.6135 19.4115 29.1502 19.9446 28.6416 20.4334C30.7589 21.3989 33.1378 21.6294 35.4007 21.0888L40.7838 25.2524L40.3131 18.4629C41.6776 17.1869 42.6813 15.5735 43.2234 13.7856L43.2235 13.7857ZM29.8214 10.5336C29.3527 7.65646 27.5719 5.16108 25.0041 3.78208C22.4358 2.40349 19.3724 2.29733 16.715 3.49563C14.0575 4.69432 12.1091 7.0606 11.4427 9.8984C10.7763 12.7362 11.4676 15.7223 13.3137 17.9785L12.1229 23.8288L17.2836 20.8273C19.3444 21.6034 21.6132 21.6283 23.6907 20.8975C25.7681 20.1667 27.5216 18.7274 28.6429 16.8318C29.7644 14.9362 30.1817 12.7061 29.8215 10.5336L29.8214 10.5336Z" fill="#FFA03F"/>
</svg>
