<svg width="21" height="17" viewBox="0 0 21 17" fill="none" xmlns="http://www.w3.org/2000/svg">
<path d="M19.9664 2.2548L13.9163 4.84765L8.30657 2.26136C8.1994 2.21158 8.07672 2.20651 7.96582 2.2472C7.85492 2.2879 7.76459 2.37107 7.71496 2.47824C7.66547 2.58586 7.66085 2.70884 7.70214 2.81973C7.74343 2.93078 7.82735 3.02081 7.93527 3.06985L13.7224 5.7383C13.8366 5.79151 13.9679 5.7939 14.0839 5.74486L19.6971 3.33937V12.62L14.3403 15.0912L7.83997 12.4918C7.73116 12.4483 7.60953 12.4495 7.50146 12.4951L1.88868 14.9007V6.05742L2.53276 5.7353C2.63829 5.68209 2.71834 5.58923 2.7553 5.47714C2.79227 5.3649 2.78318 5.24267 2.72997 5.13713C2.62056 4.91817 2.35479 4.82858 2.13507 4.93665L1.24444 5.38368C1.09375 5.45896 0.998348 5.61278 0.99805 5.78137V15.5745C0.997454 15.7246 1.07243 15.8648 1.19764 15.9477C1.32285 16.0304 1.4813 16.0446 1.61918 15.9853L7.68224 13.3858L14.1891 15.9885C14.3028 16.0337 14.43 16.0301 14.5407 15.9787L20.3279 13.307C20.4845 13.2335 20.5846 13.0758 20.5841 12.9027V2.66585C20.5843 2.51664 20.5097 2.37727 20.3854 2.29469C20.2612 2.21211 20.1038 2.19721 19.9663 2.25504L19.9664 2.2548Z" fill="#FFA03F"/>
<path d="M4.11282 0.000366211C2.40121 0.000366211 1.00391 1.39763 1.00391 3.10928C1.00391 3.61145 1.20141 4.13152 1.46406 4.68677C2.11559 5.99474 2.86403 7.08615 3.76119 8.27862C3.91173 8.47269 4.19124 8.50802 4.38558 8.35747C4.57965 8.20677 4.61498 7.9273 4.46443 7.73308C3.62242 6.56252 2.88202 5.58889 2.26912 4.30535C2.03226 3.80436 1.89453 3.3426 1.89453 3.10914C1.89453 1.87867 2.88235 0.890856 4.11282 0.890856C5.34329 0.890856 6.33111 1.87867 6.33111 3.10914C6.1424 4.19072 5.54916 5.12767 4.98364 6.00116C4.84845 6.20791 4.90747 6.48517 5.11511 6.61899C5.32186 6.75419 5.59912 6.69516 5.73294 6.48752C6.33482 5.42282 7.20385 4.29175 7.22159 3.10913C7.22159 1.39752 5.82448 0.000369996 4.11283 0.000369996L4.11282 0.000366211Z" fill="#FFA03F"/>
<path d="M4.11328 2.21851C3.62676 2.21851 3.22266 2.62261 3.22266 3.10913C3.22266 3.59566 3.62676 3.99976 4.11328 3.99976C4.59981 3.99976 5.00391 3.59566 5.00391 3.10913C5.00391 2.62261 4.59981 2.21851 4.11328 2.21851Z" fill="#FFA03F"/>
<path d="M16.2629 9.91857L15.3755 10.8092C15.2029 10.9829 15.2029 11.2632 15.3755 11.4369C15.5492 11.6095 15.8296 11.6095 16.0032 11.4369L16.8939 10.5462C17.0665 10.3726 17.0665 10.0922 16.8939 9.91857C16.6422 9.72315 16.4935 9.82258 16.2629 9.91857Z" fill="#FFA03F"/>
<path d="M15.3755 9.91854C15.2029 10.0922 15.2029 10.3726 15.3755 10.5462L16.2629 11.4368C16.4368 11.6117 16.7199 11.6117 16.8939 11.4368C17.0665 11.2632 17.0665 10.9828 16.8939 10.8092L16.0034 9.91854C15.7525 9.72402 15.6055 9.8218 15.3757 9.91854H15.3755Z" fill="#FFA03F"/>
<path d="M13.9063 6.67163C12.7128 6.8906 12.099 8.01272 11.4877 8.86038C10.9281 9.67527 10.3383 10.3856 9.45661 10.6777C8.71476 10.6777 7.89641 10.2863 7.22195 9.76742C6.54761 9.24853 6.01785 8.59136 5.84839 8.2524C5.73764 8.03269 5.46978 7.94445 5.25021 8.05519C5.03124 8.1646 4.94166 8.43037 5.04972 8.65009C5.32548 9.20145 5.90742 9.87983 6.67968 10.474C7.45209 11.0681 8.418 11.5684 9.45661 11.5684C10.7743 11.3931 11.5305 10.3198 12.2106 9.37961C12.7261 8.67619 13.1491 7.95907 13.9063 7.5623C14.9451 7.5623 15.2669 8.59423 15.2669 8.59423C15.3456 8.82601 15.5966 8.95077 15.8289 8.87356C16.062 8.7962 16.1884 8.54489 16.1115 8.31159C16.1115 8.31159 15.5386 6.67164 13.9063 6.67164L13.9063 6.67163Z" fill="#FFA03F"/>
</svg>
