<svg width="20" height="16" viewBox="0 0 20 16" fill="none" xmlns="http://www.w3.org/2000/svg">
<path d="M7.82377 16C7.78735 16 7.71464 16 7.67823 15.9636C7.38703 15.7816 0.836543 11.633 0.10854 7.04741C-0.364491 3.95411 0.727228 1.37007 3.01998 0.314663C4.1481 -0.194767 5.60382 -0.0856527 6.80468 0.64215C8.18757 1.4429 9.06092 2.8985 9.20658 4.57268C9.49778 8.24844 6.00405 9.15802 5.02156 9.34016C5.09439 9.92242 5.42188 11.4873 6.25891 12.8701C6.73205 13.6707 8.00571 15.5995 8.04211 15.5995C8.11494 15.7086 8.07853 15.8178 8.0057 15.927C7.93288 15.9635 7.86005 15.9999 7.82375 15.9999L7.82377 16ZM4.51201 0.496904C4.03886 0.496904 3.60226 0.56973 3.20195 0.751683C1.12754 1.69786 0.144963 4.09975 0.581679 6.97488C1.09111 10.2503 4.94884 13.4163 6.8775 14.7993C6.47719 14.2171 6.04047 13.5256 5.78567 13.1253C4.69384 11.3056 4.47561 9.23132 4.43918 9.12209C4.43918 8.97655 4.51201 8.86731 4.65754 8.83089C4.8395 8.79448 8.95179 8.32146 8.6607 4.57296C8.51505 2.49866 7.2777 1.47966 6.54989 1.04303C5.89481 0.679111 5.2034 0.497053 4.51191 0.497053L4.51201 0.496904Z" fill="#FF6B00"/>
<path d="M17.6876 16C17.6512 16 17.5785 16 17.5421 15.9635C17.2873 15.7816 10.7004 11.633 10.009 7.04736C9.53582 3.95407 10.6277 1.37003 12.9204 0.314907C14.0485 -0.194523 15.5043 -0.0854085 16.7051 0.642394C18.0517 1.44303 18.9251 2.86235 19.0706 4.57264C19.3618 8.2484 15.8681 9.15797 14.8856 9.34012C14.9584 9.92238 15.2859 11.4872 16.1229 12.87C16.5961 13.6707 17.8697 15.5994 17.9061 15.5994C17.979 15.7086 17.9426 15.8178 17.8697 15.9269C17.8334 15.9634 17.7606 15.9999 17.6878 15.9999L17.6876 16ZM14.4124 0.496862C13.9393 0.496862 13.5027 0.569689 13.1024 0.751641C11.028 1.69782 10.0454 4.09971 10.4821 6.97484C10.9915 10.2503 14.8493 13.4162 16.7779 14.7993C16.3776 14.217 15.9409 13.5255 15.6861 13.1252C14.5943 11.3056 14.376 9.23128 14.3396 9.12205C14.3396 8.97651 14.4124 8.86727 14.558 8.83085C14.7399 8.79443 18.8522 8.32142 18.5611 4.57291C18.3792 2.49851 17.1418 1.4433 16.414 1.04299C15.7952 0.679184 15.0673 0.497126 14.4123 0.497126L14.4124 0.496862Z" fill="#FF6B00"/>
</svg>
