<svg width="27" height="29" viewBox="0 0 27 29" fill="none" xmlns="http://www.w3.org/2000/svg">
<path d="M14.9892 21.73C16.2872 21.3811 17.4947 20.7569 18.5297 19.8995L23.1338 23.7249C23.5646 24.0834 24.1542 24.1848 24.68 23.9908C25.206 23.7968 25.5885 23.3369 25.6834 22.7844C25.7784 22.2321 25.5714 21.6708 25.1403 21.3123L20.5829 17.5231C22.1068 15.0098 22.369 11.9287 21.2919 9.19383C20.2148 6.45883 17.9222 4.38424 15.0934 3.58493C12.265 2.78554 9.2254 3.35333 6.87653 5.12006C4.52751 6.88682 3.13833 9.64936 3.12163 12.5887C3.10452 15.5279 4.46167 18.3065 6.79025 20.1C9.11883 21.8935 12.1517 22.4965 14.9895 21.7297L14.9892 21.73ZM10.9113 6.58139C12.5185 6.14872 14.2315 6.37208 15.6739 7.20261C17.116 8.03323 18.1694 9.40253 18.6019 11.0094C19.0346 12.6167 18.811 14.3297 17.9807 15.772C17.1501 17.2141 15.7808 18.2675 14.1736 18.7001C12.5666 19.1327 10.8536 18.9091 9.41133 18.0788C7.96891 17.2483 6.91583 15.8789 6.48318 14.2717C6.05059 12.6648 6.27396 10.9518 7.10449 9.50945C7.93503 8.06703 9.3044 7.01396 10.9113 6.58139Z" fill="white"/>
</svg>
