<svg width="52" height="51" viewBox="0 0 52 51" fill="none" xmlns="http://www.w3.org/2000/svg">
<path d="M8.60742 0H16.8789V7.56258H8.60742V0Z" fill="#FF6B00"/>
<path d="M23.2598 38.6396H28.9317V44.0751H23.2598V38.6396Z" fill="#FF6B00"/>
<path d="M23.2598 25.1696H28.9317V30.7233H23.2598V25.1696Z" fill="#FF6B00"/>
<path d="M8.84375 25.1696H14.5157V30.7233H8.84375V25.1696Z" fill="#FF6B00"/>
<path d="M47.8504 4.96289H45.7116V8.77961C45.7116 9.42952 45.1916 9.92578 44.5417 9.92578H33.9187C33.2688 9.92578 32.7134 9.4413 32.7134 8.77961V4.96289H19.2423V8.77961C19.2423 9.42952 18.6869 9.92578 18.0371 9.92578H7.41402C6.76412 9.92578 6.2442 9.4413 6.2442 8.77961V4.96289H4.10539C2.15565 4.96289 0.572266 6.56994 0.572266 8.53145V15.7159H51.3831V8.53145C51.3831 6.56994 49.7997 4.96289 47.8499 4.96289H47.8504Z" fill="#FF6B00"/>
<path d="M0.572266 47.0297C0.572266 48.9795 2.15565 50.5746 4.10539 50.5746H47.8506C49.8003 50.5746 51.3837 48.9794 51.3837 47.0297V18.0791H0.572914L0.572266 47.0297ZM35.0771 23.9876C35.0771 23.3377 35.6088 22.8059 36.2588 22.8059H44.294C44.9439 22.8059 45.4757 23.3377 45.4757 23.9876V31.7866C45.4757 32.4365 44.944 32.9683 44.294 32.9683H36.2588C35.6089 32.9683 35.0771 32.4366 35.0771 31.7866V23.9876ZM20.8972 23.9876C20.8972 23.3377 21.429 22.8059 22.0789 22.8059H30.1142C30.7641 22.8059 31.2959 23.3377 31.2959 23.9876V31.7866C31.2959 32.4365 30.7641 32.9683 30.1142 32.9683H22.0789C21.429 32.9683 20.8972 32.4366 20.8972 31.7866V23.9876ZM20.8972 37.4587C20.8972 36.8088 21.429 36.277 22.0789 36.277H30.1142C30.7641 36.277 31.2959 36.8088 31.2959 37.4587V45.2577C31.2959 45.9076 30.7641 46.4394 30.1142 46.4394H22.0789C21.429 46.4394 20.8972 45.9077 20.8972 45.2577V37.4587ZM6.4808 23.9876C6.4808 23.3377 7.01255 22.8059 7.66251 22.8059H15.6977C16.3477 22.8059 16.8795 23.3377 16.8795 23.9876V31.7866C16.8795 32.4365 16.3477 32.9683 15.6977 32.9683H7.66251C7.0126 32.9683 6.4808 32.4366 6.4808 31.7866V23.9876ZM6.4808 37.4587C6.4808 36.8088 7.01255 36.277 7.66251 36.277H15.6977C16.3477 36.277 16.8795 36.8088 16.8795 37.4587V45.2577C16.8795 45.9076 16.3477 46.4394 15.6977 46.4394H7.66251C7.0126 46.4394 6.4808 45.9077 6.4808 45.2577V37.4587Z" fill="#FF6B00"/>
<path d="M37.4395 25.1696H43.1114V30.7233H37.4395V25.1696Z" fill="#FF6B00"/>
<path d="M35.0781 0H43.3496V7.56258H35.0781V0Z" fill="#FF6B00"/>
<path d="M8.84375 38.6396H14.5157V44.0751H8.84375V38.6396Z" fill="#FF6B00"/>
</svg>
