<svg width="50" height="50" viewBox="0 0 50 50" fill="none" xmlns="http://www.w3.org/2000/svg">
<path d="M4.38116 34.9824C4.38116 34.7552 4.47142 34.5372 4.63205 34.3766L7.808 31.201V28.1288C7.808 27.9016 7.89826 27.6836 8.05889 27.523L9.77229 25.8096C9.93292 25.6489 10.1509 25.5587 10.3781 25.5587H14.6271C15.1786 24.2269 15.9882 23.0177 17.009 21.9999L17.0997 21.9093C17.4118 21.601 17.7418 21.3115 18.0883 21.0422V18.2029L15.1637 15.2783H10.3781C10.1509 15.2783 9.93289 15.188 9.77226 15.0274L6.59671 11.8514H2.16558L0.0976562 13.9194V42.208L0.183326 42.2569L4.38114 38.0549L4.38116 34.9824Z" fill="#41A557"/>
<path d="M13.8046 29.7355C13.8072 28.9063 13.904 28.0799 14.0926 27.2725H10.7323L9.52112 28.4837V31.556C9.52112 31.7832 9.43086 32.0012 9.27023 32.1618L6.09429 35.3374V38.4096C6.09429 38.6368 6.00403 38.8548 5.8434 39.0154L1.69336 43.1651L12.0912 49.4045L20.5006 44.3584L15.2465 35.1627C14.3022 33.5097 13.8054 31.6391 13.8046 29.7356L13.8046 29.7355Z" fill="#41A557"/>
<path d="M30.9391 29.8422C30.9391 33.1543 28.2542 35.8391 24.9422 35.8391C21.6302 35.8391 18.9453 33.1543 18.9453 29.8422C18.9453 26.5302 21.6302 23.8453 24.9422 23.8453C28.2542 23.8453 30.9391 26.5302 30.9391 29.8422Z" fill="#41A557"/>
<path d="M30.082 9.7837L33.0066 12.7083H36.0789C36.3061 12.7083 36.5241 12.7986 36.6847 12.9592L38.1469 14.4218H40.8642L43.7892 11.4971V8.42488C43.7892 8.1977 43.8795 7.9797 44.0401 7.81907L45.5027 6.35691V3.08423L38.2338 7.44575C37.9622 7.60868 37.6226 7.60868 37.3511 7.44575L32.5708 4.57733L30.0822 7.06596L30.082 9.7837Z" fill="#41A557"/>
<path d="M43.7882 22.4863V25.5586C43.7882 25.7858 43.6979 26.0038 43.5373 26.1644L40.3613 29.34V30.3439L43.5373 33.5199C43.6979 33.6805 43.7882 33.8985 43.7882 34.1257V38.4092H49.785V19.5618H46.7128L43.7882 22.4863Z" fill="#41A557"/>
<path d="M47.2156 2.05691V6.71136C47.2156 6.93854 47.1254 7.15654 46.9647 7.31717L45.5022 8.77933V11.8516C45.5022 12.0788 45.4119 12.2968 45.2513 12.4574L41.8245 15.8842C41.6639 16.0448 41.4459 16.1351 41.2187 16.1351H37.7919C37.5647 16.1351 37.3467 16.0448 37.1861 15.8842L35.7239 14.4216H32.6517C32.4245 14.4216 32.2065 14.3314 32.0459 14.1707L28.6191 10.744C28.4584 10.5833 28.3682 10.3653 28.3682 10.1382V6.71136C28.3682 6.48419 28.4584 6.26619 28.6191 6.10556L31.0557 3.66892L24.9414 0L12.5326 7.44563C12.261 7.60856 11.9214 7.60856 11.6499 7.44563L0.0976562 0.514801V11.4972L1.20519 10.3896V10.3892C1.36582 10.2286 1.58383 10.1384 1.811 10.1384H6.95119C7.17836 10.1384 7.39636 10.2286 7.55699 10.3892L10.7325 13.5652H15.5182C15.7454 13.5652 15.9634 13.6555 16.124 13.8161L19.5508 17.2429C19.7114 17.4035 19.8017 17.6215 19.8017 17.8487V19.9323C21.3564 19.1241 23.0828 18.7034 24.8348 18.7054H25.0489C27.9517 18.6973 30.7372 19.8512 32.7841 21.9096L32.8747 22.0003C34.5721 23.6972 35.6635 25.9047 35.9821 28.2832C36.3007 30.6621 35.828 33.0792 34.6371 35.1625L29.3829 44.3586L37.7924 49.4043L49.7861 42.208V40.1229H42.9325C42.4594 40.1229 42.0758 39.7393 42.0758 39.2662V34.4805L38.8999 31.3046V31.305C38.7393 31.1443 38.649 30.9263 38.649 30.6992V28.9858C38.649 28.7586 38.7393 28.5406 38.8999 28.38L42.0758 25.2044V22.1321C42.0758 21.905 42.1661 21.687 42.3267 21.5263L45.7535 18.0995C45.9142 17.9389 46.1322 17.8486 46.3593 17.8486H49.7861V0.514976L47.2156 2.05691Z" fill="#41A557"/>
<path d="M34.3651 29.7355C34.3716 27.2874 33.3987 24.9384 31.663 23.2116L31.5724 23.1209C29.8456 21.3853 27.4966 20.4124 25.0485 20.4189H24.8343C22.3862 20.4124 20.0372 21.3853 18.3104 23.1209L18.2198 23.2116C16.7886 24.6427 15.8677 26.5049 15.5991 28.5109C15.3307 30.5168 15.7292 32.5556 16.7335 34.3127L24.9413 48.6758L33.1492 34.3127C33.9455 32.9187 34.3646 31.341 34.365 29.7355H34.3651ZM24.9415 37.5529C22.8964 37.5529 20.9352 36.7405 19.4895 35.2945C18.0434 33.8488 17.2312 31.8876 17.2312 29.8426C17.2312 27.7976 18.0435 25.8364 19.4895 24.3907C20.9352 22.9446 22.8964 22.1323 24.9415 22.1323C26.9865 22.1323 28.9477 22.9447 30.3934 24.3907C31.8395 25.8364 32.6517 27.7976 32.6517 29.8426C32.6494 31.8868 31.8363 33.8466 30.391 35.2922C28.9453 36.7375 26.9857 37.5505 24.9415 37.5529Z" fill="#41A557"/>
</svg>
